<svg width="652" height="380" viewBox="0 0 652 380" fill="none" xmlns="http://www.w3.org/2000/svg">
<path d="M203.322 18.3034C202.034 17.9949 202.034 16.2468 202.034 14.653C202.498 14.036 202.858 13.8304 204.764 12.4422C205.228 12.1337 206.207 11.4653 208.267 10.8484C208.576 10.6941 208.885 10.3856 210.328 9.71725C213.212 9.40876 215.118 9.10028 217.539 9.56301C218.673 9.40876 219.754 8.94604 221.042 9.10028C221.042 9.10028 221.197 9.25452 222.948 8.94604C223.412 8.94604 226.451 9.25452 226.966 9.40876C227.945 9.56301 229.181 9.40876 230.315 9.56301C232.221 9.56301 233.818 9.56301 235.93 9.25452C237.217 9.10028 237.99 9.10028 239.123 8.4319C239.587 8.27766 240.102 8.12342 241.544 6.99231C242.008 6.52959 242.832 6.37534 244.275 5.86121C244.738 6.47817 245.253 6.83807 246.026 7.45504C246.026 7.60928 246.026 8.58614 245.562 9.66583C245.408 9.97432 245.253 9.82008 243.656 11.2597C242.678 12.0823 241.751 13.162 240.772 13.4705C238.866 14.2931 236.599 13.162 235.157 14.0874C234.539 13.9332 233.251 14.0874 232.736 13.4705C231.912 14.0874 230.315 13.9332 229.542 14.6016C229.387 17.3265 229.542 19.6915 229.542 22.4165C229.542 23.5476 230.006 24.8329 229.233 25.9126C230.057 27.0437 230.057 28.946 230.212 30.5399C230.212 30.6941 229.903 31.0026 229.233 32.5964C229.851 33.5733 229.542 34.1903 229.542 35.6298C229.696 35.9383 229.851 36.6067 229.387 37.8406V42.0052C229.387 43.4448 229.696 45.0386 229.696 46.4782C229.696 47.9178 229.542 49.5116 229.387 50.9512C229.387 52.8535 229.696 54.9615 229.387 56.5553C229.233 57.5322 228.769 58.1491 228.769 58.9717C228.769 59.4345 229.233 60.2571 229.593 62.0052C229.284 65.1928 229.13 68.8946 229.284 73.0077C229.439 74.6016 229.593 75.7327 229.13 77.9435C228.975 78.7661 229.593 81.1311 229.593 81.7995C229.593 82.6221 229.284 83.5476 229.284 84.5244L229.13 87.2494C229.13 87.8663 229.439 88.5347 229.439 89.3059C229.439 89.9229 229.13 90.8998 229.13 91.7224C228.975 93.7789 229.439 96.0412 229.284 98.4062C229.284 99.0232 228.975 99.8458 228.975 100.463C228.821 102.519 228.975 104.473 228.975 107.969C228.975 108.586 228.512 109.255 228.512 109.717C228.512 110.334 228.821 111.311 228.821 112.134C228.975 112.956 228.666 113.573 229.954 115.476C230.933 115.476 231.705 115.63 232.839 115.938C233.457 116.093 234.127 116.401 234.899 116.555C236.496 116.71 238.557 116.247 240.514 116.247C241.493 116.247 242.42 116.555 243.244 116.401C244.841 116.247 246.129 114.807 247.571 115.27C247.881 116.401 248.396 117.326 248.19 118.149C247.881 119.897 245.459 120.72 244.326 121.491C243.502 121.337 242.729 121.183 242.111 120.874C240.978 121.337 239.381 121.491 238.454 121.028C237.629 120.874 236.548 121.183 235.414 121.183C234.59 121.183 233.818 120.72 233.199 120.72C231.757 120.72 230.624 121.183 228.563 120.72C227.945 120.874 223.927 120.411 222.021 120.103C218.673 119.949 215.17 119.28 211.152 119.794C209.864 120.257 209.091 121.234 207.958 121.388C207.34 120.566 206.67 119.64 206.825 118.818C207.134 117.378 210.328 116.247 212.44 115.63C213.058 115.321 213.882 115.013 214.5 114.807C215.479 114.653 216.406 114.807 217.23 114.653C217.848 114.653 217.848 114.344 219.651 114.19C219.651 112.134 219.497 109.717 219.497 107.815C219.342 107.661 219.497 106.375 219.497 105.398C219.651 104.422 219.651 103.342 220.115 100.771C220.115 99.3316 219.961 97.7378 219.961 96.2982C219.961 94.0874 220.27 91.8252 220.424 89.4088C220.424 85.9126 219.961 82.3651 220.424 78.8689C220.579 77.5836 220.424 75.2185 220.579 73.419C220.733 70.2314 220.424 67.0437 220.424 63.8561C220.424 62.4165 220.424 60.8226 220.27 58.9203C220.27 58.7661 220.27 57.018 220.733 55.4242C220.888 54.4473 220.424 52.8535 220.424 51.4139C220.424 49.9743 220.888 48.5347 221.042 47.0951C221.042 46.4782 220.888 45.8098 220.888 45.0386C220.888 44.2674 221.197 43.2905 221.197 42.4679C221.351 41.6453 221.042 40.7198 220.888 39.8972C220.888 39.4345 221.197 38.7661 220.733 37.9949C221.197 36.8638 220.888 35.5784 221.042 34.4987C221.197 32.9049 221.506 31.6196 221.506 29.563C221.506 29.4088 221.66 29.2545 221.506 27.5064C221.351 26.5296 221.506 26.3753 221.351 24.0103C221.351 23.5476 221.506 23.0334 221.197 21.4396C221.197 19.5373 221.815 17.5836 221.351 13.6247C220.373 13.162 219.6 14.0874 218.621 14.2417C218.621 14.2417 218.312 13.9332 216.715 13.7789C216.252 13.7789 215.891 14.0874 214.14 13.6247C212.079 13.4705 210.482 13.9332 208.525 13.7789C207.082 14.6016 206.104 15.6813 204.507 17.4293L203.373 18.252L203.322 18.3034Z" fill="#673C33" stroke="#673C33" stroke-width="0.75" stroke-miterlimit="10"/>
<path d="M263.437 125.553C263.283 125.244 262.613 124.576 262.304 124.113C261.016 124.113 260.862 123.136 259.728 123.136C259.574 122.005 258.595 121.851 258.286 121.08C258.595 120.103 257.823 119.332 257.823 118.509C257.823 117.532 258.647 116.298 257.513 115.63C257.823 114.653 258.132 113.573 257.823 111.157C257.977 110.18 258.956 109.717 258.801 108.74C259.625 108.432 259.935 107.609 260.398 106.992C261.016 106.53 261.841 106.17 261.995 105.244C262.613 105.398 263.592 104.113 265.807 104.267C266.425 104.267 267.095 103.959 267.713 103.805H271.37C271.37 103.805 272.813 104.422 273.431 105.09L273.895 106.992C274.049 107.609 274.873 107.815 274.873 108.586C274.719 109.409 274.049 109.871 273.74 110.488C272.916 110.643 272.761 110.026 271.164 109.512C270.186 108.689 268.434 107.763 265.24 108.689C264.416 108.997 263.025 110.283 262.819 111.26C261.995 111.414 261.531 111.877 261.222 112.545C260.759 113.83 261.841 114.756 261.222 116.041C262.047 117.018 261.841 118.252 262.665 119.229C263.128 120.051 263.798 120.206 264.725 120.668C264.88 120.823 264.88 121.131 265.859 122.108C266.013 122.262 266.168 122.262 267.765 123.085C270.34 124.216 275.44 123.702 278.325 122.622C278.943 122.005 279.613 121.337 281.209 119.589C281.364 119.434 281.673 119.434 282.806 118.149C283.27 117.532 282.961 116.555 283.94 116.555C283.785 114.807 284.403 113.985 284.918 113.059C284.3 111.619 285.227 109.717 284.764 108.586C284.455 107.969 285.073 107.609 284.764 106.53C284.455 105.553 283.321 104.627 282.858 103.188C282.703 102.725 282.858 101.594 281.879 99.6915C281.57 99.0745 281.055 98.0976 280.746 97.6349C279.922 96.5038 278.325 95.8869 278.325 94.293C277.191 94.4473 277.037 93.6761 276.264 93.3162C275.801 91.5681 274.049 91.1054 273.379 89.3059C272.092 88.8432 271.164 88.0205 269.722 86.1182C268.434 85.1414 267.662 84.5244 265.704 82.2622C265.395 81.7995 265.086 81.1311 263.643 79.5372C262.819 79.0745 261.892 78.7146 260.295 77.3264C260.141 76.7095 259.471 76.3496 259.162 75.7326C258.853 75.2699 258.698 74.4473 257.874 74.293C258.029 73.3162 257.256 73.3162 256.123 71.2596C256.277 70.2827 255.504 70.2827 255.298 69.6658C254.68 68.8432 253.701 68.3804 252.877 67.6092C252.723 67.3007 252.877 66.9923 251.744 65.3984C251.435 64.4216 251.126 63.1876 250.302 62.365C250.147 61.748 250.147 61.9023 249.323 59.7943C249.323 57.7378 248.705 56.1439 248.705 54.1902C248.705 53.5732 249.014 52.9049 249.168 52.2879C249.168 51.9794 249.014 51.4653 249.632 50.3856C249.941 49.2545 250.096 47.9691 250.25 46.7352C251.074 46.4267 251.074 45.4498 251.538 44.8329C252.362 43.5475 253.753 42.9306 254.268 41.3367C255.247 41.0282 255.71 40.0514 256.689 39.7429C257.307 39.1259 257.977 38.1491 260.192 37.3265C261.171 37.018 261.944 35.8869 262.768 35.7326C263.592 35.4241 264.519 35.7326 266.786 34.4473C268.228 34.6015 269.516 33.8303 270.804 33.6247C271.422 33.4704 272.246 33.6247 274.152 33.1619C275.904 33.6247 277.81 34.1388 279.922 35.3727C281.673 35.3727 281.982 36.5038 283.94 36.1953C284.094 36.5038 284.403 36.6581 285.691 37.3265C286 37.6349 285.846 38.3033 287.288 39.383C287.906 40 288.267 40.3599 288.885 41.1311C289.348 41.4396 289.864 42.1079 290.173 42.8792C290.791 43.4961 291.77 43.856 292.233 44.6272C293.057 44.3187 293.83 43.1876 294.809 42.2108C296.097 40.9254 297.23 38.7146 299.445 41.2339C299.909 42.6735 298.312 43.2905 298.157 44.2673C298.054 44.6786 297.573 45.4841 296.715 46.6838C296.715 46.6838 295.891 46.9923 295.272 48.1234C294.654 48.946 294.139 49.7172 293.676 51.1568C293.985 52.4421 294.809 53.3676 295.427 56.6067C294.809 58.6632 295.582 60.7712 295.272 62.6735C295.118 63.2905 294.448 63.6504 294.294 64.2673C293.985 65.2442 294.294 66.1696 293.83 67.1465C293.366 67.6092 292.233 67.7635 291.924 68.5861C290.636 68.1234 290.327 68.5861 289.348 69.2031C288.885 68.7403 287.442 68.7403 286.309 67.3007C286 66.9923 285.485 66.3239 284.712 64.73C284.558 64.1131 284.867 63.4447 284.249 61.6966C284.249 61.0797 284.558 60.1028 284.712 59.2802C284.867 57.9948 284.867 57.2236 285.33 56.2468C285.485 56.0925 285.33 55.9383 286.155 54.3444C286.464 53.5218 286.979 52.4421 287.752 51.7737C287.906 50.0257 289.039 49.3573 289.194 47.6092C288.73 46.6324 287.906 45.8612 286.155 43.7532C286.155 43.1362 285.537 42.9306 284.403 42.1594C283.579 41.8509 282.961 41.1825 280.746 40.5655C280.128 39.4344 278.325 39.4344 277.707 38.3547C276.264 38.3547 273.689 37.5321 272.916 38.8175C272.452 38.2005 270.701 38.6632 269.877 38.2005C269.052 39.0231 267.146 38.6632 266.374 39.6401C264.468 39.3316 263.334 40.1028 262.356 41.2339C261.892 41.8509 261.222 42.2108 260.604 42.8277L258.698 44.1131C258.08 45.0899 257.565 46.3239 256.277 46.6838C256.741 48.4318 255.968 50.0257 257.256 52.5964C257.256 53.7275 257.101 55.3213 257.256 56.2468C257.41 57.2236 258.235 58.1491 258.698 59.5887C258.853 60.4113 259.007 61.0282 259.316 61.6452C260.141 63.0848 261.531 64.2159 261.738 65.8097C262.716 66.9408 263.334 68.2262 264.931 70.1285C265.756 70.7455 266.219 71.5681 266.837 72.1851C267.455 72.802 268.28 73.3162 268.434 74.2416C269.567 74.5501 269.722 75.3727 270.649 75.6812C270.649 76.1439 271.267 76.1439 272.401 77.1208C272.401 77.7378 273.019 78.0977 273.689 79.0231C274.152 79.4858 274.822 79.6401 275.285 80.1542C275.749 80.6169 275.904 81.2853 276.882 82.0565C277.191 82.2108 277.5 83.0334 278.634 84.2673C279.613 85.2442 280.694 85.8612 281.209 87.1465C282.652 87.455 282.497 89.2031 283.94 89.5629C284.094 90.1799 284.764 90.5398 285.227 91.0025C286.206 91.9794 287.288 93.0591 288.73 95.784C288.885 96.0925 288.885 96.7609 290.327 98.2005C290.636 99.7943 291.461 100.771 291.77 102.519C292.388 103.342 293.057 104.267 293.212 105.553C293.366 106.53 292.388 107.609 293.366 108.278C292.542 109.563 293.057 111.619 293.366 113.059C293.366 114.036 292.388 114.19 290.791 116.093L290.327 118.509C288.112 119.64 286.67 121.542 285.691 123.753C284.249 123.753 283.631 124.576 281.828 125.501C281.673 125.964 281.003 126.118 279.097 127.095C278.273 126.941 277.5 126.787 277.191 126.272C276.058 126.427 275.131 127.404 274.152 127.712C273.173 128.021 272.246 127.712 271.576 128.175C270.598 128.175 270.134 127.712 269.361 127.558C268.074 127.712 267.301 127.404 266.168 127.095C265.189 126.787 264.88 126.787 263.592 126.118L263.283 125.501L263.437 125.553ZM289.812 56.6067C289.194 58.509 288.37 60.4627 288.524 63.2905C289.348 63.4447 289.348 64.4216 291.254 63.5989C291.718 63.1362 291.409 63.1362 292.079 61.6966C292.233 61.0797 291.77 58.8174 291.615 58.6632C291.306 58.0462 291.461 56.9151 289.864 56.6067H289.812Z" fill="#673C33" stroke="#673C33" stroke-width="0.75" stroke-miterlimit="10"/>
<path d="M373.418 110.54C374.705 110.386 374.242 108.638 375.324 108.483C377.384 108.792 377.539 110.9 376.302 113.728C376.921 115.013 375.478 115.63 375.684 117.224C374.396 117.224 373.778 118.355 372.954 119.28C372.645 119.743 372.13 120.411 370.378 121.337C370.069 121.491 368.936 121.645 367.648 121.183C366.824 120.874 366.36 121.183 365.742 120.874C365.279 120.72 364.763 120.051 364.145 119.28C363.682 119.126 363.321 119.126 361.93 118.303C361.621 117.018 360.488 116.71 359.715 115.887C359.561 113.83 358.273 112.853 358.273 110.437C357.964 109.82 357.449 109.152 356.985 108.689C356.985 107.249 356.83 106.272 356.676 105.193C356.676 104.37 357.14 103.907 357.294 103.29C356.985 102.828 357.14 101.851 356.83 101.388C357.809 99.1774 357.294 97.0694 357.294 94.7044C357.294 94.0874 357.603 93.2648 357.294 91.3625C357.294 89.9229 357.912 88.4833 357.912 86.8895C358.067 86.0668 357.912 84.9871 358.221 84.3188C358.376 83.856 358.221 83.4961 358.376 82.2622C358.221 80.9769 358.53 78.6118 358.685 76.8123C358.685 75.8355 358.53 75.2185 358.685 73.9332C358.685 73.6247 358.839 73.1105 359.303 71.8766C359.458 71.4139 359.458 70.437 359.767 68.3805C359.767 66.9409 358.943 65.1928 360.23 64.0617C359.921 62.4679 359.921 60.4113 360.694 59.2802C360.23 57.5321 361.003 55.7841 361.158 52.9049C361.312 51.6195 361.621 51.4653 361.158 48.4319C361.003 47.8149 360.024 47.455 360.179 46.5296C357.294 46.3753 356.161 47.9692 354.718 49.1003C354.718 49.9229 355.182 50.2314 355.028 51.0026C353.894 51.8252 352.452 52.2879 351.01 52.5964C350.185 52.1337 349.567 51.4653 349.104 50.8483C349.413 49.4087 349.722 49.2545 351.01 47.3522C351.628 46.0668 352.761 45.4499 353.585 44.3188C355.028 44.473 355.182 43.1877 356.161 42.8792C357.603 43.1877 358.891 42.4165 360.797 42.5707C361.415 42.5707 361.93 42.2622 362.548 42.4165C363.682 42.5707 364.145 43.5476 365.279 43.856C365.742 44.473 366.103 45.2956 367.7 46.4267C368.009 46.8895 368.163 48.0206 369.142 50.437C369.451 52.0309 369.297 53.7789 368.833 55.0643C368.988 56.1954 369.657 57.2751 369.142 58.5604C368.833 59.1774 369.142 59.6915 369.142 60.3085C369.142 60.4627 368.988 62.8792 368.163 65.09C368.472 66.5296 368.163 67.9692 368.163 70.0257C368.163 71.1568 368.472 71.928 367.7 74.036C367.545 74.8586 367.545 75.9383 367.545 76.9152C367.391 78.6632 367.391 80.5656 367.236 82.365C367.236 83.1877 367.391 83.9589 367.236 84.5758C367.236 85.1928 366.772 85.7069 366.618 86.3239C366.309 87.455 366.154 89.82 366.618 92.3907C366.618 92.8535 366.154 93.3676 366.309 95.4242C366.463 96.8637 365.691 98.3033 366.154 99.5887C365.33 100.72 365.536 101.491 365.691 103.085C365.691 104.679 365.382 105.964 365.382 107.095C365.536 107.712 365.845 108.226 365.845 108.843C366.463 111.568 365.536 113.625 367.597 114.602C367.597 115.578 367.751 116.35 368.215 116.812C369.039 116.812 369.194 115.99 370.121 116.35C370.584 115.218 371.563 114.756 372.336 114.293C372.181 113.008 372.645 112.699 373.315 112.391V110.643L373.418 110.54ZM364.815 2.67352C364.97 3.49615 365.639 3.65039 366.257 3.95887C366.103 4.93573 366.412 5.39846 367.236 5.5527C367.082 6.52956 367.236 7.30077 367.7 7.96915C367.391 8.58612 366.876 9.10026 366.257 9.40874C366.412 9.87147 366.566 10.3856 366.412 11.1568C365.433 11.9794 364.351 12.9049 363.218 13.5733C362.085 13.8817 361.312 13.419 360.333 13.419C359.509 13.419 358.891 13.8817 357.912 13.419C357.449 13.1105 356.779 11.8252 356.315 10.6941C355.852 9.56298 355.697 8.79177 355.852 6.68381C356.83 5.08998 357.449 4.26735 358.736 3.18766C359.715 2.2108 363.218 3.3419 364.815 2.72494V2.67352Z" fill="#673C33" stroke="#673C33" stroke-width="0.75" stroke-miterlimit="10"/>
<path d="M381.042 45.6041C379.445 45.7583 377.693 45.4498 376.56 44.473C375.942 43.1876 376.56 41.5938 377.024 40.6169C378.002 40.3085 379.908 40.7712 380.526 40C382.123 41.1311 386.141 40.6169 389.026 40.1542C389.335 40 390.159 40 390.778 39.6915C391.087 37.9434 391.756 34.91 391.602 31.5681C391.602 30.1285 392.065 28.6889 392.22 27.0951C392.374 25.347 392.065 22.7763 392.22 19.5887C392.22 19.2802 391.911 18.6118 391.602 16.5552C390.778 15.5784 390.314 15.7326 389.026 15.5784C388.562 15.5784 387.893 15.5784 386.141 16.0411C383.257 15.8869 382.793 18.2519 380.217 18.6118C379.239 18.1491 379.599 16.401 379.599 14.9614C380.063 14.8072 380.217 13.9845 382.329 13.2133L386.656 11.928C387.12 11.7738 387.944 11.1054 389.078 11.4653C389.696 11.311 390.675 10.4884 392.941 11.1568C393.096 11.1568 393.92 11.311 395.362 12.4421C395.517 12.5964 396.805 13.7275 397.783 15.6298C398.092 16.9151 397.629 18.6632 398.917 19.6401C398.608 20.4627 398.917 21.5424 399.38 22.0565C399.535 22.6735 398.917 22.6735 399.689 24.7815C399.844 25.3984 399.844 26.5295 399.844 27.1979C399.998 28.4833 399.998 29.1002 399.689 30.6941C399.844 31.1568 399.689 31.9794 399.689 32.7506C399.689 35.3213 399.998 37.5321 399.689 39.7943C400.513 40.6169 400.668 39.9486 401.75 39.7943C403.192 40.9254 405.768 39.6401 408.137 39.6401C409.271 39.6401 410.198 40.4627 411.177 39.7943C411.795 40.9254 412.928 40.9254 412.619 43.8046C411.486 45.2442 409.425 44.6272 406.231 44.7815C405.098 44.9357 404.171 45.2442 403.347 45.2442C401.904 45.3984 400.617 44.7815 400.153 45.2442C398.865 46.0668 399.535 48.4318 398.711 49.563C398.711 50.1799 398.865 50.8483 398.401 52.7506C398.401 53.2133 398.247 54.036 398.247 56.2468C398.247 56.8637 398.711 57.6863 398.711 58.4576C398.711 59.5887 398.092 61.1825 397.886 62.4678C397.886 62.7763 398.195 62.7763 397.732 64.5244C397.732 65.347 398.041 65.964 397.886 66.5809C397.886 68.1748 397.577 69.9228 397.062 71.5167C397.886 72.3393 397.217 73.2648 397.217 74.5501C397.217 77.4293 398.35 80.4627 396.753 82.2108C397.217 84.6272 397.217 86.838 396.753 90.6941C396.753 91.8252 397.371 92.5964 397.371 93.5732C397.526 94.1902 396.908 95.4755 397.062 95.9897C397.062 96.6067 397.371 97.1208 397.371 97.7378C397.526 98.5604 397.217 99.3316 397.68 101.234C397.68 101.851 397.371 102.519 397.371 104.576C397.526 105.707 397.989 106.632 397.835 108.895C397.835 109.357 398.144 110.18 398.144 111.105C398.144 111.26 398.453 111.414 398.608 112.853C398.762 113.83 398.917 114.91 399.741 116.504C400.05 116.967 400.565 117.481 400.874 118.406C401.698 118.098 402.626 118.869 403.604 119.023C404.428 119.332 405.51 119.023 406.18 119.486C407.004 118.663 407.622 117.738 408.91 117.429C409.065 116.144 409.734 115.527 410.353 114.859C410.198 113.265 411.486 113.265 411.177 111.517C412.31 111.362 413.083 110.694 414.371 110.54C415.195 111.671 415.658 112.442 414.68 115.99C414.216 116.967 412.774 117.429 413.237 118.56C412.774 118.869 412.258 119.383 411.795 119.846C410.816 121.44 409.58 122.725 407.777 123.856C406.334 123.239 405.201 124.01 404.119 124.01C402.368 124.01 400.771 123.033 398.195 122.571C397.732 122.262 396.599 122.416 396.289 121.44C395.671 121.131 395.156 120.823 394.229 120.617C393.25 119.486 392.632 118.046 391.653 115.835C391.499 115.681 391.19 115.681 390.829 114.087C390.675 113.779 390.829 113.111 389.85 111.877C389.541 110.283 389.696 108.689 388.717 107.404C388.872 103.239 388.408 99.1259 388.253 93.3676C388.099 91.928 387.635 90.7969 387.635 89.5115C387.635 88.2262 387.635 86.6324 387.79 85.347C387.79 84.73 388.253 84.2159 388.099 82.1593V75.4755C388.099 74.4987 388.408 73.7275 388.562 72.9049C388.562 72.2879 388.253 71.6195 388.253 71.0025C388.253 69.8714 388.408 67.6606 388.562 65.9126C388.562 64.0103 389.181 62.2622 389.026 58.8689C389.026 57.892 389.335 57.275 389.335 56.4524C389.49 55.6298 389.335 55.0128 389.335 54.3959C389.49 52.802 389.953 51.3624 390.159 49.9228C390.159 48.4833 389.335 47.0437 390.314 45.4498C389.181 45.2956 388.099 45.4498 387.12 45.4498C385.987 45.2956 385.369 44.8329 383.772 44.9871C382.793 44.9871 382.02 45.6041 381.042 45.6041Z" fill="#673C33" stroke="#673C33" stroke-width="0.75" stroke-miterlimit="10"/>
<path d="M83.6571 165.81C84.2753 166.684 86.8509 165.398 88.3448 165.193C90.2508 166.478 92.6204 165.81 94.5263 166.272C94.9385 166.272 95.4021 166.684 97.9262 167.147C98.8019 167.147 99.4201 166.735 101.326 167.558C102.614 167.763 103.026 167.558 104.52 168.843C105.396 169.049 106.838 168.432 109.001 168.843C110.701 167.558 111.114 165.244 113.02 164.37C113.432 162.468 115.132 161.183 116.419 159.692C116.625 159.486 116.419 159.075 118.325 157.584C118.531 157.172 118.531 156.71 119.819 155.27C120.695 154.653 122.601 154.653 122.601 152.956C124.507 152.956 125.383 151.877 126.619 151.26C128.525 151.465 128.937 152.751 129.195 154.447C128.576 155.321 127.083 155.064 126.413 155.938C125.795 157.224 125.795 159.332 123.837 159.537C123.631 160.823 123.425 162.519 121.931 163.136C122.137 164.216 121.725 165.039 121.056 167.147C119.15 168.226 119.356 172.031 117.656 173.728C117.45 173.933 116.78 176.298 117.038 177.121C117.244 178.612 118.119 179.023 118.944 179.897C119.15 180.308 118.944 180.771 120.437 182.879C120.849 183.753 122.137 183.753 123.631 185.861C123.631 187.352 124.713 187.558 125.331 189.666C125.537 189.871 125.743 190.54 127.237 192.853C127.649 193.727 128.113 194.344 128.319 195.63C128.319 196.504 128.113 197.326 128.937 200.103C128.937 200.72 128.731 201.594 129.555 204.113C129.761 204.987 129.761 206.427 129.761 207.506C129.761 208.792 128.886 210.283 128.886 211.774C128.679 213.059 129.298 215.373 128.267 218.149C127.855 218.766 127.186 219.846 126.361 220.257C125.949 221.748 126.361 223.033 125.28 224.73C125.28 224.73 124.868 224.936 123.168 226.427C123.374 227.301 123.786 227.918 122.549 228.997C119.15 229.871 114.462 228.997 111.938 227.095H109.62C109.208 226.221 108.126 226.015 108.332 224.781C107.456 223.907 106.22 223.702 104.314 220.977C104.52 219.897 103.438 219.28 104.314 218.406C103.232 217.121 102.82 215.424 101.326 212.905C101.326 212.494 101.738 211.62 101.12 209.512C100.914 208.638 101.532 207.609 101.326 205.501C100.45 204.01 101.738 202.519 101.738 201.028C101.738 199.949 101.326 198.715 101.326 197.635C101.532 194.859 103.026 192.339 102.408 189.769C102.82 188.483 103.902 186.787 103.284 185.09C103.284 184.01 104.159 183.805 104.365 181.697C104.365 181.285 104.777 180.823 105.241 178.92C105.447 177.429 105.653 175.938 105.241 174.91C103.335 173.83 101.223 174.499 99.2655 174.293C98.3898 173.419 97.7717 172.391 96.6899 171.722C94.7839 171.928 94.3718 171.722 90.5083 170.643C89.0145 170.643 88.8084 171.517 85.8206 171.054C83.5026 171.671 79.6391 171.054 76.0332 172.339C74.9514 172.339 74.5393 173.213 73.7151 173.625C72.0152 173.008 71.1394 173.419 68.4093 174.499C67.3275 174.704 66.2972 174.293 63.9276 174.91C63.0519 175.527 62.4338 176.195 61.8156 177.018C60.5278 177.224 60.3217 176.144 59.4975 177.018C58.4157 177.429 58.0036 178.303 57.3855 179.126C56.0977 179.126 55.6855 179.743 53.3675 181.697C50.7918 182.314 49.3494 184.267 47.392 185.707C46.7738 185.501 46.3102 185.913 44.6103 186.324C43.7345 186.735 43.1164 187.815 42.0346 189.1C40.7468 190.797 39.459 191.208 38.8408 193.573L34.5652 196.967C34.3592 198.046 33.6895 198.663 33.4834 199.743C32.1956 200.617 31.5775 202.314 30.7017 203.753C29.826 203.959 29.4139 204.37 28.5897 204.833C28.3837 208.021 26.4777 209.512 24.7777 211.208C25.3959 214.396 23.4899 215.219 23.902 218.201C23.4899 219.486 22.6142 219.897 22.6142 221.594C20.9143 222.468 21.1203 224.781 19.2143 227.763C18.8022 229.254 19.0083 230.951 18.5962 232.442C18.5962 233.728 17.3084 233.728 17.3084 236.452C17.3084 237.069 16.6902 237.532 17.1023 240.257C16.6902 242.159 15.8145 243.445 16.0205 246.221C16.2266 247.095 16.8963 248.123 17.1023 248.997C17.3084 250.694 16.6902 252.391 17.5144 253.676C17.7205 255.167 16.6387 255.373 16.6387 256.658C16.8447 258.149 17.0508 259.64 17.5144 261.337C17.9265 262.622 17.9265 263.907 17.5144 267.044C17.7205 267.455 18.1326 268.123 17.9265 270.026C17.9265 270.231 18.3386 270.437 19.4204 272.802C19.2143 274.293 20.0386 275.373 20.7082 276.607C20.9143 277.018 20.7082 277.686 21.996 280.617C22.6142 282.108 23.2839 284.216 24.7777 285.296C25.1899 288.072 26.4777 289.769 28.7958 292.699C29.0018 294.602 30.9078 294.807 31.1138 296.71C32.4017 297.326 33.2259 298.612 34.5137 299.486C34.3077 300.977 35.5955 302.262 36.4197 303.29C36.6257 303.702 37.5015 304.781 38.5317 304.781C38.7378 305.656 39.4074 306.067 39.4074 307.095C40.6953 308.38 42.8073 308.792 43.4255 310.694C44.9193 310.488 45.5375 311.979 46.6193 312.596C46.8253 312.802 47.495 312.802 49.1949 314.087C49.8131 314.499 50.4827 315.167 51.3069 315.784C53.2129 317.069 55.325 317.892 59.8066 320.051C60.0126 321.337 60.8884 321.337 62.3822 321.954C63.258 322.365 64.7003 322.828 66.4003 323.033C67.276 324.319 69.8001 324.113 71.0879 325.141C72.5818 324.73 74.2817 324.936 75.7756 325.347C76.3938 325.553 76.6513 324.936 79.3815 325.347C80.8754 324.73 82.3693 324.936 83.8632 324.73C85.7691 324.524 87.4691 323.856 89.375 323.856C90.6629 323.856 91.6931 324.267 92.981 324.062C93.8567 324.062 94.8869 323.65 97.8747 323.856C100.193 323.856 102.15 323.239 103.85 321.954C104.726 321.954 105.55 321.954 106.426 321.748C107.508 321.337 108.126 320.257 109.208 319.846C110.289 319.229 111.32 319.434 113.226 318.56C114.101 318.149 114.925 317.275 117.038 316.452C118.119 315.578 118.944 314.756 119.613 313.47C120.489 313.47 121.107 312.853 121.725 312.391C122.343 311.774 122.601 310.694 123.631 310.694C124.249 310.283 124.043 308.586 125.949 307.301C127.237 307.712 127.031 306.427 128.267 304.73C129.555 304.319 129.967 303.239 131.255 302.828C131.667 301.337 132.131 299.846 132.337 297.943C133.419 297.738 134.449 297.326 135.737 297.326C136.819 298.612 137.849 300.308 137.643 302.416C137.437 303.496 135.737 304.113 136.355 305.398C135.067 306.015 134.449 307.301 132.543 310.077C132.337 310.694 131.667 310.951 130.225 311.979C128.731 314.087 127.443 316.247 124.507 316.658C123.889 318.56 121.725 319.229 119.613 321.131C118.531 321.337 118.119 322.416 115.338 323.239C115.132 323.445 114.719 324.062 113.226 324.73C112.144 325.347 110.907 325.81 108.95 325.81C107.868 326.427 107.044 327.506 105.962 328.38C104.674 328.175 104.056 328.586 102.974 328.586C102.099 328.792 102.356 329.871 100.399 330.488C99.9867 330.488 99.7807 330.077 97.6171 330.694C96.999 330.694 96.1232 330.694 95.299 330.488C94.2173 330.077 93.3931 329.614 90.4053 330.694C88.0872 331.105 85.0995 330.694 82.9874 331.105C81.2875 331.311 80.8754 331.979 78.2998 331.722C77.8876 332.134 75.9817 331.722 73.2 332.339C71.5 331.928 70.4183 330.231 69.182 331.928C67.8941 331.928 68.1002 330.437 66.6063 330.437C65.3185 330.437 64.7003 331.054 62.3307 331.054C61.249 330.848 60.2187 331.671 58.7248 331.26C57.643 330.386 56.6128 328.483 54.0371 327.866C53.1614 327.866 52.5433 327.866 50.6373 327.249C50.2252 327.044 49.3494 327.044 47.2374 326.375C45.9496 325.758 45.3314 324.062 43.4255 322.982C41.9316 322.776 40.8498 321.902 38.5317 320.668C37.2439 319.177 35.75 317.892 32.5562 317.069C31.6805 316.195 30.4442 315.99 29.1564 315.784C29.1564 314.704 27.8685 314.91 26.5807 311.979C25.4989 311.568 24.8808 311.105 23.3869 308.586C21.687 307.301 20.6052 305.398 18.0811 302.416C16.3811 301.131 15.969 298.612 14.063 297.738C13.4449 296.041 13.1873 294.139 11.745 293.47C11.3329 291.774 10.045 290.488 9.16931 288.792C8.55115 287.712 7.88148 286.684 7.05728 284.781C6.64517 284.576 6.64517 283.907 5.76945 281.799C5.76945 279.486 4.89373 277.532 3.86347 275.835C4.48163 272.853 2.57564 269.871 3.24531 264.165C3.24531 262.057 2.16354 259.897 2.16354 258.201C2.36959 257.121 2.7817 256.298 2.7817 255.219C2.98775 252.905 2.57564 250.54 1.90598 248.226C2.7817 246.53 2.7817 243.959 2.7817 241.44C3.65742 240.36 4.27557 239.126 4.68768 235.938C6.18155 233.625 7.00576 230.437 8.08754 227.455C8.70569 226.375 9.37536 225.347 9.78746 224.062C9.99352 222.982 10.4056 221.491 11.0753 220.257C11.4874 219.177 11.951 218.56 12.7752 216.452C13.1873 216.041 13.3934 214.55 13.857 213.676C14.2691 212.802 14.9388 212.185 15.3509 211.105C15.763 210.231 16.2266 209.409 16.4326 208.329C18.1326 207.044 18.5447 204.524 20.7082 203.445C20.2961 203.033 20.7082 202.159 22.4081 200.463C21.996 198.972 23.4899 199.177 23.2839 197.686C24.1596 197.275 24.5717 196.195 25.8595 195.784C25.6535 194.91 26.9413 194.499 27.3534 193.676C27.7655 193.265 27.9716 192.185 30.1351 190.283C31.2169 189.409 31.835 188.792 34.1531 186.478C34.5652 186.272 35.2349 186.478 36.7288 184.987C37.3469 184.576 38.2226 183.702 38.8408 183.085C39.2529 182.674 39.7165 182.211 41.4164 181.594C42.0346 181.183 42.9103 180.103 44.8163 178.817C45.8981 178.817 46.9283 177.943 48.6283 177.121C49.504 176.71 50.1221 175.835 50.7403 175.219C51.616 174.807 52.6463 174.602 53.522 174.139L56.5098 172.853C57.3855 172.442 57.7976 171.568 58.6218 171.157C60.7338 170.283 63.3095 170.951 64.8033 168.843C67.5851 168.843 70.3152 168.432 72.6848 167.558C73.303 167.147 74.1787 167.352 76.0847 166.941C77.3725 167.147 80.3603 166.324 83.2965 166.324L83.7086 165.913L83.6571 165.81ZM113.226 200.411C112.144 202.725 113.02 206.375 112.607 209.306C113.895 211.414 113.689 214.807 114.307 217.584C115.595 218.458 115.183 220.771 117.707 222.674C121.983 222.262 121.107 216.71 123.683 214.602C123.683 212.905 123.683 211.62 123.889 210.797C124.301 209.512 123.889 208.226 123.889 206.992C123.889 206.118 124.507 205.296 124.971 204.01C124.971 203.136 124.558 202.314 125.177 201.44C124.558 200.566 123.683 198.663 124.301 197.635C123.013 196.35 123.013 195.527 122.601 193.625C122.395 193.213 121.983 192.751 121.313 190.437C119.613 190.026 118.995 188.535 116.419 185.758C115.544 185.141 114.719 186.632 114.307 187.044C114.101 188.74 114.101 190.437 114.513 191.722C112.813 193.625 113.895 198.92 113.226 200.411Z" fill="#673C33" stroke="#673C33" stroke-width="0.75" stroke-miterlimit="10"/>
<path d="M328.653 261.44C328.447 260.823 328.447 260.36 328.189 259.897C327.932 259.177 327.262 258.766 326.85 258.252C325.665 256.401 324.841 255.681 324.12 255.064C323.553 254.499 323.038 253.985 322.677 253.419C321.596 253.008 320.617 252.236 319.587 251.722L318.35 251.157C317.629 250.488 317.114 250.386 316.856 250.231C314.899 249.357 314.126 249.1 313.044 248.946C312.478 248.946 311.911 248.843 311.345 248.74C311.654 247.866 311.911 247.044 312.89 246.427C312.993 245.81 312.735 245.09 312.993 244.679C314.075 243.907 314.487 242.931 314.847 242.005C314.847 241.542 314.744 241.131 314.487 240.514C314.796 239.229 314.847 239.126 314.899 238.869C315.002 238.509 315.157 238.098 315.053 237.429C315.363 237.069 315.569 236.658 315.775 236.247C315.569 235.733 315.929 235.373 315.517 234.756C315.723 233.162 315.929 232.288 315.775 231.208C316.084 230.745 316.238 230.026 316.238 229.666C316.187 228.895 315.878 227.506 315.569 227.044C315.26 225.913 315.002 225.861 314.847 225.501C314.641 224.884 314.641 224.422 314.384 223.959C314.126 223.239 313.457 222.828 313.044 222.314C311.86 220.463 311.035 219.743 310.314 219.126C309.748 218.56 309.233 218.046 308.872 217.481C307.79 217.069 306.811 216.298 305.781 215.784L304.545 215.218C303.824 214.55 303.309 214.447 303.051 214.293C301.093 213.419 300.321 213.162 299.239 213.008C297.951 212.956 296.766 212.596 295.376 212.853C294.088 212.442 293.83 212.185 293.521 212.185C291.615 212.596 291.048 212.905 290.121 213.265C288.936 213.83 287.443 213.83 286.824 214.55C283.991 214.961 283.528 215.835 282.446 216.607C280.643 218.2 278.479 220.103 277.088 221.542C276.985 222.519 276.47 223.188 275.852 223.959C275.646 224.37 275.698 224.833 275.595 225.347C274.822 226.581 274.77 227.044 274.667 227.404C274.667 227.866 274.616 228.483 274.513 228.843C274.358 229.512 274.204 229.974 274.101 230.386C274.101 230.386 274.049 230.334 274.049 230.283C272.967 229.871 271.989 229.1 270.958 228.586L269.722 228.021C269.001 227.352 268.486 227.249 268.228 227.095C266.271 226.221 265.498 225.964 264.416 225.81C263.128 225.758 261.944 225.398 260.553 225.655C259.265 225.244 259.007 224.987 258.698 224.987C256.792 225.398 256.226 225.707 255.298 226.067C254.114 226.632 252.62 226.632 252.002 227.352C249.168 227.763 248.705 228.637 247.623 229.409C245.82 231.003 243.656 232.905 242.266 234.344C242.163 235.321 241.647 235.99 241.029 236.761C240.823 237.172 240.875 237.635 240.772 238.149C239.999 239.383 239.948 239.846 239.845 240.206C239.845 240.668 239.793 241.285 239.69 241.645C239.432 243.033 238.969 243.65 239.329 244.319C238.969 244.576 239.175 245.193 238.866 245.501C238.866 246.427 238.763 246.478 238.763 246.684C238.557 247.661 238.763 247.815 238.814 248.021C238.711 248.38 238.557 248.792 238.608 249.254C238.66 249.717 238.917 250.077 238.969 250.488C238.917 251.568 238.711 251.62 238.763 251.722C239.02 252.648 238.917 253.059 238.969 253.162L239.175 254.602C239.381 256.35 239.999 257.943 240.617 259.229C240.875 259.949 241.081 260.668 241.39 261.234C241.596 261.748 242.111 262.211 242.42 262.673C242.884 263.29 243.038 263.959 243.399 264.37C244.687 265.347 244.738 265.81 245.15 265.913C246.593 267.198 247.52 268.226 248.447 268.535C249.168 268.946 249.374 269.46 249.632 269.563L250.868 269.769C252.002 269.666 252.002 270.386 252.156 270.437C253.392 270.437 253.547 270.797 254.268 270.283C254.835 270.643 255.607 270.745 256.38 270.694C256.38 270.694 256.329 270.745 256.277 270.797C256.174 271.774 255.659 272.442 255.041 273.213C254.835 273.625 254.886 274.087 254.783 274.602C254.011 275.835 253.959 276.298 253.856 276.658C253.856 277.121 253.805 277.738 253.702 278.098C253.444 279.486 252.98 280.103 253.341 280.771C252.98 281.028 253.186 281.645 252.877 281.954C252.877 282.879 252.774 282.931 252.774 283.136C252.568 284.113 252.774 284.267 252.826 284.473C252.723 284.833 252.568 285.244 252.62 285.707C252.671 286.17 252.929 286.53 252.98 286.941C252.929 288.021 252.723 288.072 252.774 288.175C253.032 289.1 252.929 289.512 252.98 289.614L253.186 291.054C253.392 292.802 254.011 294.396 254.629 295.681C254.886 296.401 255.092 297.121 255.401 297.686C255.607 298.2 256.123 298.663 256.432 299.126C256.895 299.743 257.05 300.411 257.41 300.823C258.698 301.799 258.75 302.262 259.162 302.365C260.604 303.65 261.531 304.679 262.459 304.987C263.18 305.398 263.386 305.913 263.644 306.015L264.88 306.221C266.013 306.118 266.013 306.838 266.168 306.889C267.404 306.889 267.559 307.249 268.28 306.735C269.31 307.352 271.01 307.301 272.143 306.632C273.379 306.838 273.689 307.095 274.049 307.044C275.234 307.044 275.904 307.147 276.213 307.044C276.676 306.992 277.243 306.735 277.604 306.53C278.119 306.324 278.634 305.913 279.046 305.861C279.664 305.707 280.437 306.118 280.9 305.964C282.085 305.501 282.137 305.039 282.343 304.936C283.012 305.244 284.3 304.319 284.97 304.627C285.846 303.959 286.618 303.188 286.979 302.365C287.443 302.057 287.391 301.645 288.009 301.388C288.112 301.028 288.267 300.514 288.885 300.36C289.245 299.537 289.812 298.869 290.482 298.252C290.791 297.326 291.048 296.452 292.079 295.784C292.182 295.167 291.924 294.447 292.182 294.036C293.263 293.265 293.676 292.288 294.036 291.362C294.036 290.9 293.933 290.488 293.676 289.871C293.727 289.563 293.779 289.357 293.83 289.203C295.169 290.437 296.097 291.414 297.024 291.722C297.745 292.134 297.951 292.648 298.209 292.751L299.445 292.956C300.578 292.853 300.578 293.573 300.733 293.625C301.969 293.625 302.124 293.985 302.845 293.47C303.875 294.087 305.575 294.036 306.708 293.368C307.945 293.573 308.254 293.83 308.614 293.779C309.799 293.779 310.469 293.882 310.778 293.779C311.242 293.727 311.808 293.47 312.169 293.265C312.684 293.059 313.199 292.648 313.611 292.596C314.229 292.442 315.002 292.853 315.466 292.699C316.65 292.236 316.702 291.774 316.908 291.671C317.578 291.979 318.865 291.054 319.535 291.362C320.411 290.694 321.184 289.923 321.544 289.1C322.008 288.792 321.956 288.38 322.574 288.123C322.677 287.763 322.832 287.249 323.45 287.095C323.811 286.272 324.377 285.604 325.047 284.987C325.356 284.062 325.614 283.188 326.644 282.519C326.747 281.902 326.489 281.182 326.747 280.771C327.829 280 328.241 279.023 328.601 278.098C328.601 277.635 328.498 277.224 328.241 276.607C328.55 275.321 328.601 275.218 328.653 274.961C328.756 274.602 328.91 274.19 328.807 273.522C329.117 273.162 329.323 272.751 329.529 272.339C329.323 271.825 329.683 271.465 329.271 270.848C329.477 269.254 329.683 268.38 329.529 267.301C329.838 266.838 329.992 266.118 329.992 265.758C329.941 264.987 329.632 263.599 329.323 263.136C329.013 262.005 328.756 261.954 328.601 261.594L328.653 261.44Z" fill="#673C33" stroke="#673C33" stroke-width="0.5" stroke-miterlimit="10"/>
<path d="M293.006 245.81C293.006 245.81 293.16 245.964 293.212 246.067C293.366 246.221 293.418 246.221 293.47 246.375C293.573 246.581 293.83 246.787 293.882 247.044C293.933 247.198 293.985 247.404 294.036 247.609C294.294 248.021 294.397 248.175 294.397 248.38C294.551 248.586 294.654 248.638 294.551 248.74C294.809 248.946 294.757 249.255 294.86 249.46C294.809 249.82 294.86 250.129 294.86 250.488C294.963 250.9 294.86 251.054 294.86 251.311C294.86 251.568 294.757 251.671 294.86 251.877C294.654 251.979 294.706 252.237 294.706 252.391C294.551 252.751 294.448 253.111 294.139 253.368C294.088 253.47 293.933 253.522 293.83 253.573C293.573 253.933 293.47 254.036 293.418 254.087C293.212 254.139 293.16 254.19 293.109 254.242C293.006 254.344 292.903 254.396 292.748 254.447L292.336 254.704C291.976 254.859 291.564 255.013 291.254 255.167C291.151 255.013 290.945 255.167 290.791 255.167C290.533 255.116 290.43 255.013 290.379 255.013C290.173 255.013 290.07 254.961 289.967 254.91C289.864 254.91 289.761 254.91 289.606 254.91C289.348 254.807 289.091 254.602 288.782 254.447C288.679 254.447 288.524 254.447 288.421 254.344C288.061 254.087 287.906 254.036 287.752 253.933C287.494 253.676 287.185 253.522 287.03 253.368C286.876 253.213 286.67 252.956 286.515 252.802C286.361 252.596 286.155 252.494 286.103 252.288C285.846 251.825 285.691 251.62 285.691 251.362C285.382 251.003 285.433 250.848 285.176 250.746C285.176 250.54 285.176 250.334 284.918 250.18C285.021 249.974 284.815 249.769 284.815 249.512C284.97 248.895 284.558 248.638 284.712 248.38C284.815 248.175 284.97 248.278 285.073 248.278C285.33 247.969 285.588 247.815 285.588 247.404C285.846 247.301 285.949 246.992 286.155 246.787C286.412 246.581 286.412 246.427 286.464 246.324C286.67 246.118 286.67 246.067 286.67 246.015C286.876 245.861 286.876 245.707 286.979 245.758C287.288 245.656 287.391 245.45 287.546 245.604C287.803 245.296 288.112 245.296 288.421 245.244C288.885 245.039 289.142 244.781 289.4 244.781C289.658 245.039 289.864 244.884 290.173 244.987C290.482 244.781 290.842 244.987 291.306 244.987C291.873 245.09 292.079 245.244 292.388 245.296C292.491 245.553 292.8 245.604 292.954 245.81H293.006Z" fill="white" stroke="#673C33" stroke-width="0.5" stroke-miterlimit="10"/>
<path d="M277.14 274.704C277.14 274.704 277.037 274.55 276.934 274.499C276.779 274.396 276.728 274.396 276.676 274.242C276.573 274.087 276.367 273.882 276.316 273.625C276.264 273.47 276.213 273.265 276.161 273.11C275.955 272.751 275.801 272.596 275.852 272.442C275.749 272.236 275.646 272.236 275.698 272.134C275.492 271.979 275.543 271.671 275.44 271.517C275.492 271.157 275.44 270.9 275.44 270.54C275.388 270.128 275.44 270.026 275.44 269.717C275.44 269.512 275.543 269.357 275.44 269.203C275.595 269.049 275.595 268.843 275.595 268.689C275.749 268.329 275.801 267.969 276.161 267.661C276.213 267.558 276.367 267.506 276.419 267.404C276.676 267.044 276.779 266.941 276.779 266.889C276.985 266.787 276.985 266.735 277.037 266.735C277.14 266.632 277.243 266.53 277.346 266.53L277.758 266.272C278.119 266.067 278.428 265.913 278.737 265.707C278.84 265.861 279.046 265.604 279.2 265.655C279.407 265.655 279.51 265.758 279.561 265.758C279.716 265.758 279.819 265.758 279.922 265.81C280.025 265.81 280.128 265.81 280.231 265.81C280.488 265.81 280.694 266.015 280.952 266.118C281.055 266.118 281.209 266.118 281.312 266.118C281.622 266.324 281.776 266.375 281.879 266.427C282.137 266.632 282.394 266.735 282.549 266.889C282.703 267.044 282.858 267.198 282.961 267.404C283.115 267.558 283.27 267.661 283.321 267.866C283.579 268.278 283.682 268.483 283.682 268.689C283.991 268.997 283.888 269.152 284.146 269.203C284.146 269.409 284.146 269.614 284.352 269.717C284.249 269.923 284.455 270.077 284.403 270.334C284.249 270.951 284.609 271.105 284.506 271.414C284.403 271.62 284.3 271.517 284.197 271.568C283.991 271.877 283.734 272.082 283.734 272.442C283.476 272.596 283.373 272.905 283.218 273.11C282.961 273.316 282.961 273.47 282.909 273.573C282.755 273.779 282.755 273.83 282.703 273.882C282.497 274.087 282.497 274.19 282.394 274.139C282.137 274.293 282.034 274.499 281.879 274.344C281.673 274.653 281.364 274.704 281.106 274.807C280.694 275.064 280.437 275.321 280.231 275.373C279.973 275.167 279.819 275.373 279.561 275.27C279.303 275.476 278.943 275.373 278.582 275.373C278.067 275.373 277.861 275.218 277.604 275.218C277.501 275.013 277.243 274.961 277.088 274.807L277.14 274.704Z" fill="white" stroke="#673C33" stroke-width="0.5" stroke-miterlimit="10"/>
<path d="M269.516 259.023C269.516 259.023 269.516 258.817 269.516 258.663C269.516 258.458 269.413 258.406 269.464 258.252C269.464 258.046 269.413 257.686 269.464 257.429C269.464 257.275 269.568 257.069 269.619 256.864C269.619 256.35 269.619 256.144 269.722 255.99C269.722 255.733 269.619 255.63 269.722 255.63C269.619 255.321 269.825 255.116 269.825 254.859C270.083 254.601 270.237 254.293 270.34 253.985C270.495 253.573 270.598 253.522 270.804 253.265C270.958 253.059 271.061 253.008 271.061 252.751C271.267 252.751 271.37 252.545 271.473 252.391C271.783 252.185 272.092 251.877 272.504 251.877C272.607 251.877 272.761 251.877 272.864 251.877C273.276 251.722 273.431 251.671 273.482 251.671C273.689 251.671 273.74 251.671 273.792 251.671C273.895 251.671 274.049 251.671 274.204 251.671H274.719C275.131 251.774 275.543 251.877 275.904 251.928C275.904 252.134 276.213 252.082 276.316 252.185C276.47 252.391 276.522 252.494 276.573 252.545C276.728 252.648 276.779 252.751 276.831 252.853C276.882 252.905 276.985 252.956 277.088 253.059C277.294 253.265 277.346 253.573 277.552 253.882C277.604 253.985 277.758 254.087 277.81 254.139C277.964 254.55 278.119 254.704 278.17 254.859C278.273 255.218 278.428 255.527 278.479 255.784C278.531 256.041 278.582 256.298 278.582 256.555C278.582 256.812 278.685 257.018 278.685 257.224C278.685 257.789 278.685 258.046 278.582 258.252C278.685 258.715 278.531 258.817 278.685 259.074C278.582 259.229 278.479 259.434 278.582 259.691C278.376 259.846 278.479 260.103 278.325 260.308C277.861 260.771 278.119 261.182 277.81 261.337C277.604 261.44 277.552 261.285 277.449 261.234C277.088 261.337 276.779 261.388 276.573 261.697C276.264 261.697 276.007 261.851 275.749 261.902C275.388 261.902 275.337 262.056 275.234 262.108C274.976 262.159 274.925 262.211 274.925 262.262C274.667 262.262 274.564 262.416 274.513 262.262C274.204 262.211 273.998 262.262 273.946 262.108C273.586 262.211 273.276 262.108 273.019 261.954C272.504 261.902 272.143 261.954 271.937 261.799C271.834 261.44 271.577 261.44 271.422 261.182C271.061 261.182 270.855 260.823 270.495 260.565C270.083 260.206 269.98 259.949 269.774 259.743C269.774 259.486 269.619 259.28 269.516 258.972V259.023Z" fill="white" stroke="#673C33" stroke-width="0.5" stroke-miterlimit="10"/>
<path d="M300.424 266.17C300.424 266.17 300.321 266.324 300.269 266.427C300.218 266.581 300.269 266.684 300.115 266.787C300.012 266.941 299.857 267.249 299.703 267.404C299.6 267.506 299.394 267.609 299.239 267.764C298.93 268.123 298.878 268.278 298.672 268.329C298.518 268.535 298.569 268.638 298.415 268.586C298.312 268.895 298.054 268.946 297.9 269.1C297.539 269.152 297.282 269.306 297.024 269.512C296.663 269.717 296.56 269.717 296.251 269.82C296.045 269.871 295.891 269.871 295.736 270.026C295.53 269.923 295.324 270.026 295.169 270.026C294.757 270.026 294.397 270.077 294.036 269.871C293.933 269.871 293.83 269.717 293.727 269.666C293.315 269.563 293.16 269.512 293.109 269.512C292.954 269.357 292.903 269.357 292.851 269.306C292.748 269.306 292.594 269.152 292.542 269.049L292.13 268.792C291.821 268.535 291.564 268.226 291.255 268.021C291.358 267.866 291.048 267.763 291.048 267.609C291.048 267.404 291.048 267.249 291.048 267.198C290.945 267.044 290.997 266.941 290.997 266.838C290.997 266.735 290.894 266.632 290.894 266.53C290.894 266.272 290.945 265.964 290.945 265.707C290.945 265.604 290.894 265.45 290.894 265.347C290.997 264.936 290.945 264.781 290.997 264.627C291.1 264.319 291.151 264.01 291.203 263.805C291.254 263.599 291.409 263.393 291.512 263.188C291.615 262.982 291.667 262.776 291.821 262.622C292.13 262.211 292.233 262.005 292.439 261.902C292.594 261.491 292.8 261.491 292.8 261.234C293.006 261.183 293.16 261.08 293.212 260.823C293.47 260.823 293.521 260.566 293.779 260.514C294.397 260.411 294.448 260 294.757 260C294.963 260 294.912 260.154 295.015 260.257C295.376 260.36 295.633 260.514 296.045 260.36C296.251 260.566 296.56 260.514 296.818 260.617C297.127 260.771 297.23 260.72 297.385 260.72C297.642 260.823 297.694 260.771 297.745 260.771C298.003 260.925 298.106 260.874 298.106 260.977C298.312 261.183 298.569 261.234 298.518 261.388C298.878 261.491 299.033 261.748 299.188 262.005C299.6 262.314 299.909 262.416 300.012 262.674C299.909 262.982 300.115 263.136 300.115 263.393C300.424 263.548 300.424 263.959 300.527 264.37C300.681 264.884 300.63 265.09 300.681 265.398C300.527 265.604 300.578 265.861 300.475 266.067L300.424 266.17Z" fill="white" stroke="#673C33" stroke-width="0.5" stroke-miterlimit="10"/>
<path d="M413.134 341.902C413.134 342.314 413.34 342.982 413.134 344.216C414.422 345.296 414.216 347.609 415.452 348.689C415.246 350.386 415.658 351.671 416.946 353.573C417.152 353.985 416.946 354.859 418.028 357.378L420.81 362.468C422.098 365.039 424.21 366.478 425.497 368.843C426.991 369.46 428.279 370.334 431.009 372.031C431.885 372.442 432.915 371.825 433.791 372.648C435.491 372.442 437.603 370.745 441.003 370.334C441.879 369.923 442.085 369.049 442.703 368.638H444.815C444.403 365.244 446.309 362.262 445.433 359.28C445.021 357.995 444.145 357.172 443.321 356.093C443.115 355.887 442.909 355.27 441.209 353.573C439.509 352.956 437.191 352.494 435.027 353.779C434.615 354.653 432.709 355.27 433.121 356.967C432.04 357.378 431.215 357.789 430.803 358.663C429.515 358.046 428.485 357.378 426.322 355.476C426.116 354.19 426.528 352.905 426.734 351.671C428.228 351.054 429.515 349.974 430.752 349.1C431.37 348.689 432.658 348.483 433.327 347.609C434.203 347.198 436.109 346.324 438.633 346.787C438.633 346.581 440.127 346.581 442.445 347.198C442.857 347.404 443.733 348.483 444.557 349.1C444.969 349.717 446.051 350.386 446.875 351.671C447.287 352.082 447.493 352.545 448.575 354.447C448.781 354.859 449.193 355.321 449.657 357.429C449.863 358.509 450.739 361.028 450.533 362.519C450.533 364.422 449.039 365.501 449.915 367.609C448.833 369.1 447.596 369.923 447.133 372.494C446.515 372.699 446.051 373.368 444.557 375.27C443.681 375.064 443.063 375.476 441.982 375.476C441.363 375.476 440.282 375.064 439.87 375.27C438.376 375.476 437.088 376.967 435.594 376.35C435.182 377.224 434.1 377.429 433.276 378.046C432.194 377.841 430.958 377.635 429.258 377.635C427.97 377.224 427.352 375.938 425.446 376.35C425.034 375.938 424.57 375.476 422.87 375.27C422.458 374.653 421.995 374.396 420.089 373.368C419.882 373.368 419.213 373.573 417.77 372.751C416.895 372.339 416.483 372.134 414.989 369.974C414.371 369.769 413.495 369.563 413.083 368.895C412.465 368.278 412.465 366.787 410.971 366.787C410.765 365.501 409.889 365.09 407.983 362.519C407.571 362.314 407.777 361.902 406.077 360.206C405.665 359.332 405.459 358.303 404.995 357.429C404.789 356.555 403.913 356.144 404.119 355.116C403.244 354.036 402.832 352.545 402.214 351.105C401.801 349.82 401.132 348.329 400.514 346.889C400.514 346.272 400.514 345.398 399.432 343.907C399.226 342.828 399.226 341.594 397.732 338.612C397.732 336.915 397.526 335.63 396.65 334.602C396.65 332.905 396.65 331.208 395.568 330.129C395.98 328.638 395.156 326.735 394.95 325.039V322.468C394.332 319.28 393.868 314.602 392.375 309.512C392.168 308.226 392.581 308.432 392.375 306.941C392.168 305.861 391.087 303.753 390.881 299.949C390.469 298.869 390.263 297.172 390.469 295.064C390.263 293.985 389.181 293.368 390.056 292.751C389.181 291.877 389.644 290.437 389.181 289.357C388.769 288.483 387.893 287.455 387.687 286.375C387.481 285.964 387.687 285.296 387.069 284.267C386.863 283.856 387.069 283.188 386.451 281.954C386.038 280.463 385.575 278.972 384.338 278.149C384.751 276.452 383.926 276.247 383.926 275.167C381.814 273.47 381.145 270.694 377.951 270.283C377.539 269.666 377.075 268.792 376.869 268.175C374.087 267.301 372.181 268.38 370.481 269.46C369.194 269.46 368.988 268.175 368.369 267.558C367.751 267.558 366.67 267.558 366.257 267.147C366.051 266.272 365.382 265.45 365.639 263.753C366.515 263.342 367.751 263.342 367.957 262.057C371.357 261.851 374.963 262.057 377.745 260.977C378.363 260.771 378.363 260.36 381.145 259.486C383.257 257.995 385.163 256.967 388.563 253.779C388.769 253.368 388.769 251.208 390.469 251.465C390.469 250.591 391.087 249.769 392.375 247.198C393.25 245.09 394.281 243.599 393.868 240.206C393.662 237.429 392.787 234.704 391.756 232.339C391.55 231.722 391.138 231.054 390.469 230.231C389.85 230.231 388.975 230.026 388.357 229.82C385.781 229.614 383.875 230.231 382.845 231.517C381.969 232.391 380.939 233.83 380.063 234.704C377.487 234.91 376.663 236.401 374.963 237.275C374.757 238.149 374.345 238.766 374.087 239.383C373.469 240 372.387 239.794 372.181 240.874C372.387 244.884 371.306 247.455 368.988 248.74C368.988 250.643 367.906 251.517 368.369 253.419C367.082 254.499 367.494 256.195 364.97 258.303C364.97 258.303 365.176 258.715 363.27 260C363.27 261.08 363.27 261.902 363.064 262.571C362.445 262.982 362.188 264.267 361.158 264.473C361.364 265.964 360.282 266.375 359.87 267.249C360.076 268.072 360.488 268.946 360.488 271.722C360.488 273.213 359.2 275.527 359.87 277.018C360.488 278.098 360.282 280.617 359.87 282.314C359.664 283.599 359.252 285.09 359.87 288.895C360.076 290.18 359.458 291.465 359.458 292.699C359.252 293.316 359.664 294.19 359.664 294.807C359.458 297.789 358.376 300.103 359.458 302.468C358.582 304.576 359.046 307.147 358.84 309.666C358.84 310.488 358.427 311.157 358.427 311.774C358.427 313.059 358.84 314.087 358.84 315.373C358.84 316.247 358.634 317.275 358.634 318.355C358.634 319.64 358.84 320.925 358.84 322.159C358.84 323.239 358.427 324.267 358.427 325.141C358.427 326.427 359.046 327.918 358.221 328.946C358.427 329.82 358.84 330.231 358.634 331.517C357.346 333.83 354.822 334.91 351.216 335.116C350.134 334.499 349.516 333.625 348.434 332.802C348.228 330.488 348.228 329.614 347.352 327.918C347.558 326.015 347.558 325.141 346.734 323.907C347.146 323.033 347.146 322.416 346.528 319.64C346.528 318.355 346.734 317.069 346.734 315.835C346.734 312.236 346.734 307.969 347.146 303.959V299.692C347.146 299.28 347.352 299.28 347.146 297.121C347.146 295.835 347.352 294.807 347.352 293.728C347.352 292.442 346.94 291.157 347.352 288.226C347.352 286.324 346.94 284.833 346.734 283.342C346.734 282.262 347.146 281.44 347.146 280.36C347.146 278.046 346.734 275.27 346.734 272.699C346.734 271.825 347.146 271.003 347.146 270.386C347.146 269.512 346.528 268.483 346.528 267.609C346.528 266.992 346.94 266.324 346.116 263.805C345.91 262.725 345.498 260.617 345.498 258.303V255.99C345.292 254.91 345.498 254.087 345.498 253.213C345.704 252.134 345.498 250.9 345.498 249.614C345.292 248.74 345.086 247.712 345.498 246.015C345.704 245.604 345.498 244.73 345.498 243.496V235.835C345.704 234.961 345.498 234.344 345.498 232.853V227.147C345.498 225.861 345.704 225.244 345.498 224.165V221.851C345.292 219.537 345.498 216.555 345.498 213.573V199.794C345.704 198.098 345.498 196.195 345.498 194.293C345.91 193.008 346.579 191.722 346.786 190.026C347.198 187.712 347.198 185.347 347.867 183.033C348.073 181.954 348.485 180.925 348.743 180.051C349.361 177.943 349.619 176.658 350.237 174.756C350.443 173.882 350.443 173.265 351.731 170.951C352.349 169.666 352.349 169.254 353.225 167.969C353.637 167.558 353.637 167.095 354.925 165.398C355.131 164.987 355.337 164.524 356.418 163.496C357.037 163.085 357.037 162.211 357.5 161.594C357.706 161.183 358.582 160.103 358.994 159.692C359.2 159.486 359.612 159.486 360.694 157.995C361.57 157.584 362.6 157.121 365.176 154.807C365.588 154.602 365.588 154.396 367.082 153.522C368.782 152.031 371.357 150.745 373.675 149.512C374.293 149.306 375.375 148.432 375.787 148.432C378.775 147.558 381.505 148.843 384.081 149.049C385.163 148.843 385.575 149.666 386.193 150.334C388.305 151.62 390.211 152.236 391.293 154.139C392.375 155.013 392.581 156.452 393.868 156.915C393.868 157.995 395.156 158.406 395.156 159.486C395.362 159.897 395.156 160.566 395.774 162.879C395.98 163.085 396.393 163.753 395.568 165.45C395.362 166.324 396.186 166.735 395.568 168.021C395.156 169.1 393.868 168.895 393.868 170.129C392.581 170.334 391.756 170.334 389.593 170.54C388.975 168.432 390.469 167.147 390.211 163.548C390.211 162.468 390.623 162.057 390.211 160.566C389.799 159.949 388.923 159.486 388.717 158.458C387.841 158.869 387.635 158.458 385.729 157.378C384.029 157.789 383.823 156.761 382.948 156.093C381.866 156.298 380.836 155.476 379.342 155.681C378.93 155.887 378.724 156.298 377.024 156.093L373.624 156.298C372.542 156.71 372.13 157.584 369.812 158.406C368.73 159.023 368.318 160.308 366.824 160.308C364.712 162.879 363.218 165.193 362.342 168.586C361.055 169.46 361.055 170.283 359.767 172.596C359.561 173.213 359.973 174.293 359.149 176.607C358.943 177.224 358.943 177.481 358.943 178.92C358.943 178.715 358.53 180.617 358.737 182.725C358.53 186.324 357.449 190.591 357.449 194.807C357.449 195.681 357.655 196.093 357.449 198.817C357.449 199.897 357.861 201.131 358.067 202.211C358.067 203.907 358.273 206.015 357.655 209.614C357.655 210.231 358.067 211.105 358.067 211.928C358.067 213.213 357.861 215.527 358.067 217.224C358.067 219.537 358.479 222.931 358.273 225.707C358.273 227.609 358.685 229.512 358.685 231.414C358.685 232.288 358.273 232.905 358.685 235.681C358.685 236.555 358.479 237.584 358.479 238.252C358.479 239.743 357.603 241.234 357.603 242.725C357.603 243.599 358.221 244.422 358.221 245.296C358.427 247.198 357.346 249.306 358.84 250.591C360.127 250.591 360.127 249.306 360.539 248.689C360.952 248.278 361.158 248.072 361.621 246.118C362.033 245.501 362.909 245.039 363.321 244.422C363.321 244.216 363.321 243.805 364.815 242.314C365.691 241.234 366.515 240.206 367.391 238.92C367.597 238.303 368.266 237.429 368.679 236.607C369.554 235.321 370.378 233.83 372.284 233.419C372.284 231.928 373.366 231.517 375.478 229.614C375.684 229.409 376.56 228.74 377.178 227.918C377.796 227.506 378.878 227.044 379.29 226.221C380.372 226.632 381.196 225.81 381.866 225.347C382.742 225.141 383.772 225.141 384.442 224.73C386.141 224.113 387.841 223.239 389.541 223.239C391.035 223.033 392.117 223.856 394.641 224.113C394.847 224.319 394.847 224.73 396.753 225.81C397.371 226.684 398.453 227.095 399.741 228.997C400.359 229.614 401.029 230.283 401.853 233.008C401.853 233.213 402.471 233.213 403.347 234.91C403.965 236.812 403.347 239.126 403.965 241.491C403.553 242.982 401.853 243.188 402.265 245.296C401.183 245.707 401.389 247.198 399.947 247.198C399.947 248.278 400.565 248.278 398.659 250.18C398.453 252.699 397.371 255.064 395.053 255.27C394.435 255.681 394.435 256.761 392.941 258.458C391.859 259.332 390.366 259.743 389.541 260.771C387.429 261.645 385.266 262.057 384.029 263.753C384.235 264.833 385.317 265.45 387.429 267.147C387.635 267.352 388.047 267.352 390.005 268.843C390.417 270.129 391.293 270.745 392.323 271.362C393.817 274.139 395.517 276.658 396.805 279.846C397.886 282.159 398.917 284.319 399.998 288.329C400.205 288.535 400.617 288.946 400.617 290.643L402.523 295.938C403.141 297.635 403.604 299.126 404.016 300.823C404.223 302.314 404.223 303.393 404.429 304.627C404.841 305.913 405.716 306.735 405.51 309.512C405.716 311.414 407.004 313.522 406.798 317.584C407.004 318.869 407.674 319.692 408.086 320.771C408.292 322.057 408.086 323.342 408.498 326.067C408.498 326.272 408.91 326.684 408.91 329.049C409.116 329.666 409.528 330.129 409.528 332.031C409.528 332.237 409.94 332.442 410.404 334.602C410.816 336.093 411.28 337.789 411.898 339.486C412.31 340.36 412.774 340.977 413.186 342.057L413.134 341.902Z" fill="#673C33" stroke="#673C33" stroke-width="0.75" stroke-miterlimit="10"/>
<path d="M458.311 315.784C460.011 315.578 459.393 313.213 460.887 313.008C463.668 313.419 463.875 316.195 462.175 320C463.05 321.697 461.093 322.571 461.299 324.679C459.599 324.679 458.723 326.17 457.693 327.455C457.281 328.072 456.611 328.946 454.293 330.231C453.881 330.437 452.387 330.643 450.687 330.026C449.605 329.614 448.987 330.026 448.112 329.614C447.493 329.409 446.824 328.535 445.999 327.506C445.381 327.301 444.918 327.301 443.012 326.221C442.6 324.524 441.106 324.113 440.024 323.033C439.818 320.257 438.118 319.023 438.118 315.835C437.706 314.961 437.036 314.139 436.418 313.522C436.418 311.62 436.212 310.334 436.006 308.843C436.006 307.763 436.624 307.147 436.83 306.272C436.418 305.656 436.624 304.37 436.212 303.702C437.5 300.72 436.83 297.995 436.83 294.807C436.83 293.933 437.242 292.905 436.83 290.334C436.83 288.432 437.706 286.53 437.706 284.37C437.912 283.29 437.706 281.799 438.118 280.977C438.324 280.36 438.118 279.897 438.324 278.201C438.118 276.504 438.53 273.316 438.736 271.003C438.736 269.717 438.53 268.895 438.736 267.198C438.736 266.787 438.942 266.118 439.612 264.422C439.818 263.805 439.818 262.519 440.23 259.743C440.23 257.841 439.148 255.476 440.848 254.036C440.436 251.928 440.436 249.152 441.466 247.661C440.848 245.347 441.878 242.982 442.085 239.177C442.291 237.481 442.703 237.275 442.085 233.213C441.878 232.339 440.591 231.928 440.797 230.643C436.985 230.437 435.491 232.545 433.585 234.036C433.585 235.116 434.203 235.527 433.997 236.607C432.503 237.686 430.597 238.303 428.691 238.715C427.609 238.098 426.785 237.224 426.115 236.401C426.528 234.499 426.991 234.293 428.691 231.722C429.567 230.026 431.009 229.152 432.091 227.712C433.997 227.918 434.203 226.221 435.491 225.81C437.397 226.221 439.097 225.193 441.672 225.398C442.548 225.398 443.166 224.987 443.99 225.193C445.484 225.398 446.103 226.684 447.596 227.095C448.215 227.969 448.678 228.997 450.79 230.488C451.202 231.105 451.408 232.596 452.696 235.784C453.108 237.892 452.902 240.257 452.284 241.954C452.49 243.445 453.366 244.936 452.696 246.632C452.284 247.455 452.696 248.123 452.696 248.946C452.696 249.152 452.49 252.339 451.408 255.321C451.82 257.224 451.408 259.126 451.408 261.902C451.408 263.393 451.82 264.422 450.79 267.198C450.584 268.278 450.584 269.769 450.584 271.003C450.378 273.316 450.378 275.887 450.172 278.201C450.172 279.28 450.378 280.308 450.172 281.183C450.172 282.057 449.554 282.674 449.296 283.496C448.884 284.987 448.678 288.175 449.296 291.568C449.296 292.185 448.678 292.853 448.884 295.578C449.09 297.481 448.008 299.383 448.678 301.08C447.596 302.571 447.854 303.65 448.06 305.758C448.06 307.866 447.648 309.563 447.648 311.054C447.854 311.877 448.266 312.545 448.266 313.368C449.142 316.967 447.854 319.743 450.584 321.028C450.584 322.314 450.79 323.342 451.46 324.01C452.542 324.01 452.748 322.931 454.036 323.393C454.654 321.902 455.942 321.285 457.023 320.617C456.817 318.92 457.435 318.509 458.311 318.046V315.733V315.784ZM446.824 172.391C447.03 173.47 447.905 173.676 448.73 174.087C448.524 175.373 448.936 175.99 450.018 176.195C449.811 177.481 450.018 178.509 450.636 179.383C450.224 180.257 449.554 180.874 448.73 181.285C448.936 181.902 449.142 182.571 448.936 183.599C447.648 184.679 446.154 185.913 444.66 186.787C443.166 187.198 442.085 186.581 440.848 186.581C439.766 186.581 438.942 187.198 437.654 186.581C437.036 186.17 436.161 184.473 435.542 182.982C434.924 181.491 434.667 180.411 434.924 177.686C436.212 175.578 437.036 174.499 438.736 173.008C440.024 171.722 444.712 173.213 446.824 172.391Z" fill="#673C33" stroke="#673C33" stroke-width="0.75" stroke-miterlimit="10"/>
<path d="M530.687 230.283C531.305 229.871 532.181 230.488 533.005 230.694C533.881 230.9 535.117 230.694 535.993 230.9C537.075 231.311 538.105 232.596 539.393 232.185C541.093 234.293 542.999 235.784 544.08 238.56C544.08 239.177 545.368 238.972 545.986 241.542C546.192 242.622 547.274 243.033 547.892 243.856C548.098 244.267 548.098 245.347 548.974 246.17C549.386 247.249 550.262 248.74 551.55 252.545C551.962 254.653 551.962 256.555 550.674 257.841C550.88 259.949 550.468 262.519 550.056 265.244C549.85 266.735 549.644 268.226 548.974 269.254C548.356 270.951 546.398 271.568 546.192 273.265C544.698 273.882 544.286 275.578 542.174 276.658C541.762 277.069 541.968 277.943 540.062 279.229L538.156 280.925C537.075 281.799 536.25 282.622 535.375 283.702C532.593 283.907 531.769 285.604 528.987 285.81C528.111 286.221 527.287 286.684 526.669 287.301C525.587 287.506 525.381 287.095 522.857 288.38C520.333 288.792 518.169 289.46 514.357 290.488C514.151 290.488 513.533 290.694 510.957 290.9C509.258 290.694 507.558 290.283 506.064 289.203C503.952 290.283 503.282 290.077 499.47 290.9C498.388 290.694 497.152 289.614 496.276 289.203C494.988 288.792 493.958 287.712 492.876 287.918C489.27 288.792 491.795 296.195 492.258 299.177C492.464 300.463 492.258 301.697 492.464 302.571C492.876 303.856 493.958 305.347 494.37 306.787C494.576 307.198 494.576 307.866 495.658 309.563C496.07 310.437 496.07 310.848 497.564 313.573C498.646 315.476 499.676 317.172 500.758 318.252C501.17 318.869 502.046 318.869 503.746 321.44C505.446 321.851 506.939 322.725 508.433 323.548C509.721 323.959 510.751 324.627 512.039 325.45C514.151 326.735 516.521 326.324 519.715 326.324C520.59 326.324 521.621 326.735 522.702 326.735C523.321 326.53 525.484 326.118 526.72 325.656C527.802 325.244 528.214 324.165 529.502 324.165C529.914 323.085 530.79 322.262 532.078 321.594C532.284 319.486 533.572 318.201 535.478 317.584C537.796 318.663 538.878 323.548 536.353 324.987C535.735 325.193 535.272 326.478 534.859 327.095C532.541 327.095 532.541 328.997 531.46 330.077C529.966 329.871 529.554 330.488 528.935 329.666C528.06 330.283 527.236 330.745 524.917 331.979C523.218 332.185 521.518 331.979 517.706 331.979C516.006 332.185 515.13 333.47 513.894 331.979C511.318 333.059 509.206 333.265 506.888 332.391C505.806 332.185 505.188 331.979 503.076 330.694C502.2 330.077 501.788 329.203 500.964 328.792C500.14 328.38 498.852 328.38 496.946 326.272C491.228 325.861 488.446 322.879 486.334 319.075C485.922 318.458 485.252 317.995 484.428 317.584C484.428 316.093 483.14 315.476 482.11 313.573C481.904 312.956 481.492 312.288 480.616 311.671C480.41 310.797 480.41 309.974 478.71 307.198C478.504 306.787 478.71 305.707 477.422 303.599C477.422 303.188 477.629 302.314 476.804 300.411C476.804 299.332 476.598 298.098 476.598 297.018C476.598 295.938 477.216 295.321 477.216 294.242C477.216 293.83 477.01 293.162 477.216 291.054C477.216 289.974 476.598 288.74 476.598 287.661C476.598 286.787 477.01 285.964 477.474 283.856C477.886 283.239 477.68 281.954 477.886 280.463C478.092 278.972 478.762 277.275 479.174 275.784C479.38 274.293 479.38 272.802 479.792 271.311C480.41 267.712 482.574 264.319 484.48 260.72C484.686 260.308 484.48 259.64 485.768 258.406C485.974 257.789 485.974 257.532 487.261 256.093C488.343 254.602 489.167 252.905 490.043 251.414C491.743 249.1 493.855 246.324 497.461 243.753C498.337 243.136 498.749 242.262 499.367 241.851C500.243 241.234 501.067 241.234 501.943 240.566C502.355 240.36 502.561 239.949 504.055 239.075C505.136 238.201 505.755 237.378 507.042 236.761C510.03 235.476 513.43 233.368 518.066 232.082C521.054 229.974 525.948 230.18 529.348 229.306L531.048 230.18L530.687 230.283ZM532.799 238.149C532.181 238.149 531.099 237.943 530.223 237.943C525.948 237.326 522.136 238.56 518.118 237.326C517.912 239.023 516.418 238.817 514.924 239.229C513.842 239.434 512.812 240.103 511.936 239.846C511.524 241.542 509.361 241.542 508.33 242.622C507.249 243.496 507.042 244.524 506.218 245.604C503.643 246.221 503.437 249.203 501.325 250.077C501.118 251.157 500.243 251.568 500.243 252.596C498.955 252.391 499.161 253.882 498.749 254.499C498.337 254.91 497.667 255.116 496.173 257.481C496.585 259.383 495.555 259.794 494.679 262.571C494.061 263.445 494.061 263.856 492.979 265.347C492.361 267.044 492.773 267.455 492.773 269.152C492.773 271.465 492.773 273.625 492.361 275.938C493.649 276.812 493.237 278.046 494.061 279.126C494.679 280 496.173 280.617 497.049 281.234C499.367 282.519 501.067 283.136 504.055 283.805C507.455 284.422 512.348 284.884 516.16 284.422C518.066 284.216 520.178 283.342 521.878 282.725C523.99 282.108 525.896 281.645 527.184 280.617C528.06 280.617 528.472 280 529.502 280.411C530.378 279.332 531.614 278.92 532.902 278.509C533.52 277.224 534.602 276.607 535.89 275.938C535.684 274.447 537.178 274.653 538.878 272.134C539.084 270.848 540.577 269.563 542.483 267.866C543.102 266.787 543.565 265.758 544.595 265.09C544.595 262.776 545.008 260.617 546.089 259.383C546.089 258.303 544.801 258.56 545.214 256.864C545.626 255.167 545.832 253.676 545.214 251.979C544.338 250.694 542.432 250.283 542.432 248.586C542.02 247.301 542.638 247.095 542.638 246.015C541.556 246.221 542.02 244.73 539.444 243.445C539.444 242.828 539.444 241.954 537.95 240.051C537.332 239.846 536.044 239.846 534.756 239.434C534.138 239.229 533.263 238.355 532.644 238.149H532.799Z" fill="#673C33" stroke="#673C33" stroke-width="0.75" stroke-miterlimit="10"/>
<path d="M586.939 300.411C585.857 298.715 585.445 297.841 585.033 294.91C584.827 292.802 584.621 288.535 586.321 284.936C586.527 283.856 586.527 282.622 588.227 280.257C588.845 278.972 589.309 277.686 591.215 274.961C592.09 273.676 592.709 272.391 593.533 271.362C593.533 271.157 594.151 271.157 595.645 269.254C595.851 269.049 595.645 268.637 597.139 267.146C599.045 266.324 601.157 263.959 602.857 262.468C603.269 261.851 604.763 261.182 605.638 260.565L608.42 257.995C609.914 256.709 611.614 255.887 613.726 253.985C615.22 253.11 617.126 251.208 619.907 249.306C620.783 248.432 621.401 247.815 622.226 246.735C623.307 245.655 624.132 244.833 625.213 242.725C625.419 242.725 625.625 242.519 626.913 240.823C627.119 240.206 627.789 239.332 628.407 238.509C629.283 237.224 629.489 236.607 630.519 234.036C630.931 233.162 631.137 232.339 631.601 231.465C631.807 230.848 632.477 230.18 632.889 229.357C633.095 228.946 632.889 228.278 633.713 226.787C634.589 224.473 634.125 221.697 635.619 219.383C635.001 218.509 635.619 217.275 635.619 216.195C635.619 215.784 635.207 215.116 635.825 212.596C636.237 210.283 636.237 207.506 635.825 204.936C635.825 204.524 635.413 204.062 635.207 201.542C635.207 201.131 634.795 200.463 634.795 198.149C634.383 196.041 633.507 194.139 632.219 190.283C631.807 188.792 631.343 187.712 630.519 186.684C629.901 185.398 628.613 184.576 626.913 182.211C625.419 181.337 623.101 181.337 622.432 179.434C620.113 179.434 619.65 177.738 618.156 176.864C617.074 176.658 616.868 177.275 615.838 177.275C614.962 175.167 610.944 173.882 608.832 175.578C608.214 175.167 606.514 175.578 606.257 174.704C605.381 174.91 604.557 175.321 603.681 175.578C602.805 174.961 601.363 175.99 599.869 174.704C599.457 174.704 598.787 175.99 597.087 176.812C595.181 177.686 593.481 178.715 592.399 180.206C590.7 180.206 590.287 181.697 589 182.108C588.381 182.519 588.381 183.599 587.506 184.01C586.372 184.147 585.514 183.942 584.93 183.393C584.93 184.679 584.93 185.707 584.518 186.581C582.818 188.072 581.942 190.386 580.242 191.877C580.036 193.985 578.749 195.064 577.667 196.144C578.542 197.224 577.255 197.429 577.049 198.458C576.843 199.332 576.843 201.028 576.843 202.056C576.637 203.136 577.049 204.164 576.43 204.833C576.637 205.913 577.512 206.324 578.13 207.146C578.336 207.352 577.924 208.226 579.212 209.254C579.418 210.54 579.83 212.236 581.788 214.756C582.612 215.63 584.312 216.864 585.6 217.738C585.806 219.023 586.475 219.846 586.475 221.337C584.57 222.211 583.488 221.748 579.882 221.748C577.976 220.668 577.306 218.149 575.194 217.275C574.988 215.99 573.906 215.373 573.288 214.293C572.876 213.008 572.876 211.517 571.794 210.694C572 207.301 570.919 204.524 571.176 201.337C571.382 199.434 572.67 197.738 572.464 195.835C573.34 194.961 573.752 193.933 573.958 193.059C574.164 192.648 574.576 191.979 575.04 189.46C575.864 187.969 577.564 187.146 577.821 185.193C579.521 183.29 581.427 181.388 585.033 178.406C585.239 178.2 585.445 177.532 587.145 176.092C587.557 175.887 587.763 176.092 589.257 174.601C590.133 174.396 590.751 174.396 591.833 173.316C592.709 172.905 594.151 172.442 595.233 172.031C595.851 171.825 596.314 171.414 598.427 171.157C598.839 170.951 599.92 170.077 602.908 169.871C603.99 169.666 605.226 168.997 606.308 168.792C607.184 168.792 608.214 168.586 609.09 168.586C610.378 168.586 611.408 169.46 613.108 168.792C613.983 169.666 615.683 169.409 616.92 169.871C619.032 170.283 620.938 171.362 624.338 172.442C624.75 172.648 625.162 173.522 626.862 173.933C627.068 173.933 627.737 173.727 629.437 174.807C629.849 175.218 630.725 175.681 633.455 176.709C634.331 177.326 634.949 177.326 637.061 179.486C637.937 180.36 638.761 180.565 639.379 181.182C639.998 181.799 639.997 183.085 641.079 183.29C641.285 184.576 641.697 185.398 642.779 185.861C643.191 187.763 644.891 189.666 646.179 193.059L647.055 195.373C647.673 197.686 648.549 200.257 648.961 203.239C649.167 205.347 650.043 208.946 650.043 211.311C650.043 212.391 649.424 214.087 649.424 214.704C649.218 215.784 649.218 217.275 649.012 218.509C648.806 220.411 648.394 221.491 647.724 223.188C647.106 225.09 646.849 226.581 645.612 227.661C645.818 228.946 644.994 229.563 644.788 230.437C644.376 231.311 643.912 232.134 643.706 233.213C643.088 233.625 643.294 234.704 642.419 235.99C641.337 236.864 640.719 238.098 640.101 239.177L637.782 242.365C637.164 242.982 636.083 243.445 634.177 245.758C633.095 246.838 631.858 248.74 629.901 249.563C629.283 251.26 627.789 251.877 626.913 253.573C625.213 253.368 624.801 254.447 623.719 254.859C622.844 256.555 620.32 256.555 618.208 258.869C617.589 259.949 616.302 260.565 615.889 261.851C613.983 262.468 611.614 262.931 610.378 265.038C609.502 265.244 609.296 265.913 607.184 267.609C606.308 268.483 605.69 269.717 604.402 270.386C603.99 272.082 603.526 273.573 602.29 274.396C602.29 276.092 601.414 277.378 600.59 278.406C600.178 279.28 599.972 280.72 599.302 282.211C598.89 283.29 597.602 283.907 598.22 285.398C596.933 285.604 596.933 287.506 595.645 290.077C595.233 291.774 595.439 294.961 595.645 299.64C596.057 301.131 597.551 302.622 599.663 302.416C599.869 303.496 600.075 304.524 599.045 305.604C598.169 306.221 598.633 307.918 597.551 308.175C596.675 308.792 596.057 307.558 594.357 307.763C594.357 307.763 593.481 307.146 591.575 306.272C590.287 305.398 590.081 303.496 588.381 303.085C588.175 302.211 587.506 301.594 586.888 300.308L586.939 300.411ZM586.939 346.838C586.063 343.033 585.651 338.355 589.257 337.275C589.257 335.99 590.339 335.784 591.163 334.087C591.575 333.676 593.481 333.47 593.739 332.185C596.057 331.774 597.345 331.311 600.951 332.802C601.157 333.213 600.745 334.087 599.045 334.704C599.045 335.578 600.126 335.784 602.238 338.098C602.445 338.303 602.238 338.715 603.526 340.874C603.732 342.159 604.814 344.679 603.732 346.17C602.651 346.581 601.414 347.044 600.951 348.278C600.075 347.866 599.869 348.895 598.169 348.689C597.551 348.689 597.293 349.1 595.181 349.306C593.893 349.512 593.893 349.923 592.399 349.512C591.112 349.512 591.112 348.226 590.287 348.021C588.381 348.226 587.712 347.404 586.888 346.735L586.939 346.838Z" fill="#673C33" stroke="#673C33" stroke-width="0.75" stroke-miterlimit="10"/>
<path d="M232.272 265.964C232.272 264.679 232.684 263.856 232.478 262.776C232.478 261.285 231.602 260 231.19 258.766C230.315 254.55 229.284 252.596 228.409 250.9C227.79 249.409 227.121 248.123 226.915 246.889C225.215 245.398 223.927 243.29 222.433 241.594L220.527 239.691C219.651 237.995 218.827 237.378 218.415 236.915C215.427 233.933 214.14 232.905 212.234 231.825C209.915 230.745 207.958 229.254 205.228 228.843C203.116 227.147 202.91 226.53 202.24 226.272C198.428 225.656 197.14 225.861 195.234 225.861C192.659 226.067 189.928 224.987 188.228 225.861C182.717 224.576 181.223 225.861 178.647 226.478C174.165 228.175 168.86 230.077 165.254 231.774C164.378 233.47 162.936 234.344 161.236 235.373C160.618 235.99 160.36 236.864 159.742 237.686C157.424 239.383 156.96 240.257 156.548 240.874C156.136 241.748 155.672 242.776 155.26 243.445C153.766 245.758 152.478 246.632 152.685 248.123C151.809 248.329 151.809 249.614 150.985 250.026C150.366 251.722 150.109 251.722 149.903 252.134C148.821 253.83 149.027 254.242 149.027 254.704C148.615 255.321 147.945 255.99 147.739 256.812C147.533 257.686 147.739 258.509 147.533 259.383C146.657 261.285 146.245 261.285 146.245 261.491C146.039 263.393 145.627 264.062 145.627 264.267L145.009 267.044C144.133 270.437 144.133 273.83 144.391 276.607C144.391 278.098 144.185 279.589 144.391 280.823C144.391 281.902 145.009 283.136 145.267 284.216C145.679 285.707 145.473 286.992 145.885 288.021C147.585 290.797 147.379 291.62 147.997 292.031C149.697 295.424 150.779 297.995 152.272 299.229C153.354 300.514 153.354 301.542 153.766 302.005L155.878 303.29C157.99 303.907 157.578 305.193 157.784 305.398C160.102 306.221 160.102 307.095 161.802 306.684C163.296 308.586 166.49 309.666 169.014 309.254C171.126 310.54 171.59 311.157 172.208 311.362C174.32 312.236 175.608 312.853 176.226 312.853C177.102 313.059 178.338 313.059 179.214 312.853C180.295 312.853 181.532 312.442 182.408 312.648C183.695 312.853 184.726 314.139 185.807 314.139C188.383 314.139 188.795 313.265 189.207 313.265C190.289 314.344 193.225 313.47 194.307 314.55C196.419 313.933 198.325 313.059 199.613 311.774C200.695 311.568 200.901 310.694 202.189 310.694C202.601 310.077 203.27 309.203 204.507 309.409C205.794 308.123 207.288 307.301 208.988 306.632C210.276 305.141 211.306 303.65 213.676 303.239C214.294 302.159 214.294 300.668 215.17 300.051C217.745 299.434 219.188 297.943 220.476 296.452C220.888 295.578 220.888 294.756 220.888 293.47C222.382 291.362 222.588 291.157 222.794 290.694C223.206 290.077 223.875 289.409 224.082 288.123C224.957 287.712 225.575 287.044 226.194 286.427C226.194 285.347 227.069 284.936 226.812 283.445C228.306 280.668 229.387 279.177 229.799 277.069C230.675 276.452 231.499 275.167 231.705 274.499C232.118 273.008 232.581 270.231 232.324 269.203C232.53 266.889 232.118 266.632 232.118 265.81L232.272 265.964ZM175.917 260.668C175.917 260.668 175.762 260.977 175.711 261.182C175.608 261.491 175.608 261.594 175.453 261.799C175.299 262.108 175.093 262.622 174.835 262.931C174.681 263.136 174.423 263.342 174.268 263.599C173.856 264.267 173.753 264.576 173.496 264.679C173.29 265.039 173.29 265.244 173.187 265.141C173.032 265.656 172.672 265.758 172.466 266.118C172.002 266.272 171.641 266.53 171.281 266.889C170.817 267.352 170.663 267.352 170.302 267.506C169.993 267.661 169.838 267.661 169.632 267.969C169.426 267.763 169.117 267.969 168.911 268.123C168.396 268.123 167.932 268.329 167.469 268.021C167.314 268.021 167.211 267.815 167.057 267.763C166.49 267.661 166.335 267.558 166.284 267.558C166.129 267.301 166.026 267.301 165.975 267.249C165.82 267.198 165.666 267.044 165.614 266.889L165.151 266.427C164.79 266.015 164.481 265.553 164.12 265.193C164.275 264.936 163.914 264.73 163.863 264.524C163.863 264.113 163.863 263.959 163.863 263.805C163.76 263.548 163.811 263.342 163.811 263.136C163.811 262.982 163.708 262.828 163.708 262.622C163.708 262.159 163.811 261.645 163.863 261.131C163.863 260.925 163.811 260.72 163.811 260.514C163.966 259.794 163.966 259.486 164.017 259.28C164.172 258.715 164.223 258.2 164.378 257.789C164.533 257.378 164.687 257.018 164.842 256.658C164.996 256.298 165.048 255.938 165.254 255.681C165.717 254.961 165.872 254.55 166.129 254.396C166.387 253.676 166.645 253.676 166.645 253.213C166.902 253.059 167.108 252.853 167.211 252.442C167.52 252.442 167.623 251.979 167.932 251.877C168.757 251.671 168.808 250.9 169.22 250.848C169.478 250.848 169.426 251.157 169.529 251.26C169.993 251.414 170.302 251.62 170.817 251.311C171.075 251.62 171.487 251.568 171.796 251.671C172.156 251.877 172.362 251.774 172.466 251.825C172.775 251.928 172.878 251.928 172.878 251.928C173.187 252.134 173.341 252.031 173.29 252.236C173.547 252.596 173.856 252.596 173.753 252.905C174.217 253.059 174.371 253.47 174.578 253.882C175.041 254.396 175.453 254.55 175.556 254.961C175.402 255.527 175.659 255.733 175.659 256.195C176.02 256.452 175.968 257.172 176.123 257.841C176.277 258.715 176.174 259.126 176.226 259.589C176.02 259.949 176.02 260.36 175.917 260.823V260.668ZM203.785 277.686C203.785 277.686 203.94 277.892 204.043 278.046C204.249 278.201 204.352 278.2 204.404 278.458C204.558 278.715 204.867 279.023 204.919 279.383C205.022 279.589 205.022 279.897 205.125 280.206C205.434 280.771 205.64 280.977 205.537 281.285C205.691 281.542 205.846 281.594 205.743 281.748C206.052 282.005 205.949 282.468 206.155 282.776C206.052 283.342 206.052 283.856 206.155 284.37C206.258 285.039 206.155 285.193 206.103 285.707C206.052 286.067 205.949 286.324 206.103 286.581C205.846 286.838 205.846 287.198 205.846 287.455C205.588 288.072 205.434 288.689 204.97 289.254C204.867 289.409 204.661 289.563 204.507 289.717C204.094 290.386 203.94 290.591 203.888 290.643C203.579 290.848 203.528 290.9 203.476 291.003C203.322 291.157 203.167 291.362 202.961 291.414L202.343 291.928C201.828 292.339 201.261 292.648 200.798 293.008C200.643 292.802 200.334 293.213 200.128 293.213C199.819 293.213 199.664 293.111 199.561 293.111C199.304 293.213 199.149 293.111 198.995 293.111C198.892 293.111 198.686 293.162 198.531 293.162C198.17 293.162 197.861 292.853 197.449 292.751C197.295 292.751 197.089 292.751 196.934 292.751C196.471 292.442 196.213 292.442 196.058 292.339C195.698 292.082 195.337 291.928 195.08 291.671C194.822 291.414 194.616 291.157 194.462 290.951C194.256 290.694 193.998 290.54 193.895 290.283C193.586 289.614 193.38 289.357 193.328 288.997C192.916 288.586 193.019 288.278 192.659 288.175C192.659 287.815 192.659 287.506 192.35 287.352C192.504 286.941 192.247 286.735 192.298 286.375C192.556 285.347 191.989 285.141 192.246 284.627C192.401 284.319 192.607 284.422 192.71 284.319C193.071 283.753 193.431 283.393 193.483 282.776C193.895 282.468 194.049 282.005 194.307 281.594C194.668 281.183 194.719 280.925 194.822 280.771C195.08 280.411 195.131 280.308 195.131 280.257C195.44 279.897 195.492 279.692 195.595 279.743C196.007 279.486 196.213 279.075 196.419 279.28C196.78 278.715 197.243 278.56 197.655 278.406C198.325 277.892 198.686 277.429 199.046 277.326C199.407 277.584 199.716 277.326 200.076 277.429C200.489 277.018 201.004 277.172 201.622 277.121C202.395 277.069 202.704 277.224 203.064 277.224C203.219 277.532 203.579 277.584 203.837 277.789L203.785 277.686ZM192.453 244.165C192.453 244.165 192.71 244.267 192.865 244.319C193.122 244.37 193.225 244.319 193.38 244.473C193.637 244.576 194.049 244.73 194.255 244.884C194.41 244.987 194.616 245.193 194.822 245.296C195.337 245.604 195.595 245.656 195.698 245.861C196.007 246.015 196.161 245.964 196.058 246.118C196.471 246.221 196.574 246.478 196.883 246.632C197.037 246.992 197.243 247.249 197.552 247.558C197.913 247.918 197.964 248.021 198.067 248.329C198.17 248.535 198.222 248.689 198.428 248.843C198.274 249.049 198.48 249.254 198.583 249.409C198.634 249.82 198.789 250.18 198.583 250.591C198.583 250.694 198.428 250.797 198.377 250.9C198.325 251.362 198.274 251.465 198.274 251.517C198.119 251.671 198.067 251.722 198.067 251.774C198.016 251.877 197.913 252.031 197.81 252.082L197.501 252.494C197.192 252.802 196.831 253.111 196.574 253.368C196.368 253.265 196.265 253.573 196.058 253.573C195.749 253.573 195.595 253.573 195.492 253.573C195.286 253.676 195.131 253.625 194.977 253.676C194.874 253.676 194.719 253.779 194.565 253.779C194.204 253.779 193.792 253.779 193.38 253.779C193.225 253.779 193.071 253.83 192.916 253.882C192.35 253.779 192.143 253.83 191.937 253.779C191.474 253.676 191.062 253.676 190.753 253.573C190.444 253.47 190.134 253.368 189.825 253.265C189.516 253.162 189.259 253.111 189.053 252.956C188.435 252.648 188.177 252.545 188.022 252.339C187.456 252.185 187.404 251.979 187.095 251.979C186.992 251.774 186.786 251.62 186.477 251.568C186.477 251.311 186.116 251.26 185.962 251.003C185.756 250.386 185.138 250.334 185.086 250.026C185.086 249.82 185.292 249.871 185.395 249.769C185.498 249.409 185.653 249.1 185.395 248.74C185.601 248.483 185.55 248.175 185.601 247.918C185.756 247.609 185.653 247.455 185.704 247.352C185.756 247.095 185.704 247.044 185.704 246.992C185.859 246.735 185.756 246.632 185.91 246.632C186.168 246.375 186.168 246.17 186.426 246.221C186.529 245.861 186.838 245.707 187.147 245.501C187.507 245.09 187.61 244.781 187.971 244.679C188.435 244.781 188.538 244.576 188.95 244.524C189.156 244.216 189.671 244.216 190.186 244.062C190.856 243.907 191.216 243.959 191.525 243.856C191.783 244.01 192.143 243.959 192.504 244.062L192.453 244.165ZM176.484 289.512C176.484 289.512 176.226 289.409 176.123 289.357C175.865 289.254 175.814 289.306 175.608 289.152C175.35 288.997 174.99 288.843 174.732 288.638C174.578 288.483 174.423 288.329 174.217 288.175C173.702 287.866 173.444 287.763 173.393 287.558C173.135 287.404 172.981 287.404 173.032 287.301C172.62 287.198 172.569 286.889 172.259 286.735C172.156 286.375 171.95 286.067 171.641 285.758C171.281 285.398 171.281 285.244 171.178 284.936C171.075 284.679 171.075 284.524 170.817 284.422C170.972 284.267 170.817 284.01 170.714 283.856C170.714 283.445 170.611 283.085 170.817 282.725C170.817 282.622 170.972 282.519 171.023 282.416C171.126 282.005 171.178 281.851 171.229 281.799C171.435 281.645 171.435 281.594 171.487 281.542C171.538 281.44 171.641 281.285 171.796 281.234L172.156 280.874C172.517 280.566 172.878 280.36 173.135 280.051C173.341 280.154 173.496 279.897 173.702 279.897C174.011 279.897 174.165 279.897 174.268 279.897C174.475 279.846 174.629 279.897 174.784 279.897C174.887 279.897 175.041 279.846 175.196 279.794C175.556 279.794 175.968 279.897 176.381 279.949C176.535 279.949 176.69 279.949 176.844 279.949C177.411 280.051 177.617 280.051 177.823 280.103C178.235 280.257 178.647 280.308 179.008 280.411C179.368 280.514 179.626 280.668 179.883 280.771C180.141 280.874 180.45 280.977 180.656 281.131C181.223 281.491 181.532 281.645 181.635 281.851C182.201 282.057 182.201 282.262 182.562 282.262C182.665 282.468 182.82 282.674 183.129 282.725C183.129 282.982 183.489 283.085 183.592 283.29C183.747 283.959 184.365 284.01 184.365 284.319C184.365 284.524 184.159 284.473 184.056 284.524C183.953 284.884 183.747 285.141 183.953 285.553C183.695 285.758 183.747 286.067 183.644 286.324C183.438 286.632 183.541 286.735 183.541 286.889C183.438 287.147 183.489 287.198 183.438 287.249C183.283 287.506 183.335 287.609 183.18 287.609C182.923 287.815 182.871 288.072 182.614 287.969C182.511 288.329 182.15 288.483 181.841 288.638C181.429 288.997 181.274 289.306 180.965 289.409C180.553 289.254 180.347 289.46 179.986 289.409C179.78 289.717 179.214 289.666 178.699 289.769C178.029 289.871 177.668 289.769 177.308 289.871C177.05 289.666 176.69 289.717 176.381 289.614L176.484 289.512ZM187.095 264.165C187.095 264.165 187.25 264.267 187.353 264.319C187.559 264.37 187.61 264.37 187.713 264.473C187.868 264.627 188.177 264.73 188.332 264.936C188.435 265.039 188.538 265.244 188.692 265.398C189.053 265.707 189.259 265.758 189.259 265.964C189.465 266.118 189.568 266.118 189.516 266.221C189.825 266.324 189.877 266.581 190.031 266.735C190.083 267.095 190.237 267.352 190.444 267.661C190.701 268.021 190.701 268.123 190.753 268.432C190.804 268.638 190.804 268.792 190.959 268.946C190.804 269.1 190.959 269.357 190.959 269.512C190.959 269.923 190.959 270.283 190.804 270.643C190.804 270.745 190.65 270.848 190.598 270.951C190.495 271.362 190.444 271.517 190.444 271.568C190.289 271.722 190.289 271.774 190.237 271.825C190.186 271.928 190.083 272.082 189.98 272.134L189.671 272.494C189.413 272.802 189.104 273.059 188.847 273.316C188.692 273.213 188.589 273.47 188.435 273.522C188.177 273.522 188.074 273.522 187.971 273.522C187.816 273.625 187.713 273.573 187.559 273.573C187.456 273.573 187.353 273.625 187.25 273.676C186.992 273.676 186.683 273.625 186.374 273.573C186.271 273.573 186.116 273.625 186.013 273.625C185.601 273.522 185.447 273.522 185.292 273.522C184.983 273.419 184.674 273.368 184.417 273.265C184.159 273.162 183.953 273.059 183.798 272.905C183.592 272.802 183.386 272.751 183.232 272.596C182.82 272.236 182.614 272.134 182.511 271.928C182.098 271.722 182.098 271.568 181.841 271.568C181.789 271.362 181.686 271.208 181.429 271.157C181.429 270.9 181.171 270.848 181.12 270.591C181.017 269.974 180.605 269.923 180.605 269.614C180.605 269.409 180.811 269.46 180.862 269.357C180.965 268.997 181.12 268.74 180.965 268.38C181.171 268.175 181.171 267.866 181.223 267.609C181.377 267.301 181.326 267.198 181.377 267.044C181.48 266.787 181.429 266.735 181.48 266.684C181.635 266.427 181.583 266.324 181.686 266.324C181.892 266.118 181.944 265.861 182.15 265.964C182.253 265.604 182.511 265.45 182.768 265.296C183.077 264.936 183.232 264.576 183.489 264.524C183.798 264.627 183.953 264.422 184.262 264.422C184.468 264.113 184.829 264.164 185.241 264.01C185.756 263.856 186.013 263.907 186.271 263.856C186.477 264.01 186.735 264.01 186.992 264.062L187.095 264.165ZM208.937 262.828C208.937 262.828 209.091 262.982 209.143 263.085C209.297 263.188 209.349 263.188 209.4 263.342C209.503 263.548 209.761 263.753 209.812 263.959C209.864 264.113 209.915 264.319 209.967 264.524C210.225 264.936 210.328 265.039 210.328 265.296C210.482 265.501 210.585 265.501 210.482 265.604C210.74 265.758 210.688 266.118 210.791 266.324C210.74 266.735 210.791 267.044 210.791 267.404C210.894 267.866 210.791 267.969 210.791 268.329C210.791 268.586 210.688 268.74 210.791 268.946C210.585 269.1 210.637 269.357 210.637 269.563C210.482 269.974 210.379 270.437 210.07 270.797C210.018 270.9 209.864 271.003 209.761 271.105C209.503 271.568 209.4 271.671 209.349 271.774C209.143 271.877 209.143 271.979 209.04 272.031C208.937 272.134 208.834 272.288 208.679 272.339L208.267 272.699C207.906 272.956 207.546 273.213 207.185 273.47C207.082 273.316 206.876 273.625 206.722 273.625C206.464 273.625 206.413 273.573 206.31 273.573C206.103 273.625 206.052 273.573 205.897 273.573C205.794 273.573 205.691 273.573 205.537 273.573C205.279 273.573 205.022 273.368 204.764 273.265C204.661 273.265 204.507 273.265 204.404 273.265C204.043 273.059 203.888 273.059 203.734 273.008C203.476 272.802 203.167 272.699 203.013 272.545C202.858 272.391 202.704 272.185 202.549 272.031C202.395 271.877 202.189 271.774 202.137 271.568C201.879 271.105 201.725 270.951 201.725 270.694C201.416 270.386 201.467 270.18 201.21 270.129C201.21 269.871 201.21 269.666 200.952 269.563C201.055 269.306 200.849 269.152 200.849 268.895C201.004 268.175 200.592 268.021 200.746 267.661C200.849 267.455 201.004 267.506 201.055 267.455C201.313 267.095 201.519 266.838 201.519 266.375C201.776 266.17 201.879 265.81 202.085 265.553C202.343 265.244 202.343 265.09 202.395 264.987C202.549 264.73 202.601 264.679 202.601 264.627C202.807 264.37 202.807 264.216 202.91 264.267C203.219 264.062 203.322 263.805 203.476 263.959C203.734 263.599 204.043 263.496 204.301 263.342C204.764 262.982 204.97 262.674 205.279 262.622C205.537 262.828 205.743 262.622 206 262.674C206.258 262.416 206.67 262.468 207.082 262.468C207.649 262.468 207.855 262.519 208.113 262.519C208.216 262.725 208.473 262.776 208.679 262.931L208.937 262.828Z" fill="#673C33" stroke="#673C33" stroke-width="0.5" stroke-miterlimit="10"/>
</svg>
